<svg xmlns="http://www.w3.org/2000/svg" xmlns:xlink="http://www.w3.org/1999/xlink" contentStyleType="text/css" data-diagram-type="DESCRIPTION" height="754px" preserveAspectRatio="none" style="width:1233px;height:754px;background:#FFFFFF;" version="1.1" viewBox="0 0 1233 754" width="1233px" zoomAndPan="magnify"><title>Organisatie Structuur</title><defs/><g><text fill="#888888" font-family="Arial" font-size="10" lengthAdjust="spacing" textLength="70.835" x="1148.165" y="9.2822">OpenWoo.app</text><text fill="#000000" font-family="Arial" font-size="14" font-weight="bold" lengthAdjust="spacing" textLength="172.1563" x="523.4219" y="35.6357">Organisatie Structuur</text><!--cluster Shareholders--><g id="cluster_Shareholders"><rect fill="#FFFFFF" fill-opacity="0.00000" height="226.59" rx="2.5" ry="2.5" style="stroke:#181818;stroke-width:1;" width="475" x="442" y="56.9375"/><path d="M557.0342,56.9375 L557.0342,66.2344 L547.0342,76.2344 L442,76.2344 " fill="#FFFFFF" fill-opacity="0.00000" style="stroke:#181818;stroke-width:1;"/><text fill="#000000" font-family="Arial" font-size="14" font-weight="bold" lengthAdjust="spacing" textLength="105.0342" x="445" y="70.9326">Shareholders</text></g><!--cluster Board--><g id="cluster_Board"><rect fill="#FFFFFF" fill-opacity="0.00000" height="113.3" rx="2.5" ry="2.5" style="stroke:#181818;stroke-width:1;" width="263" x="957" y="170.2275"/><path d="M1013.6621,170.2275 L1013.6621,179.5244 L1003.6621,189.5244 L957,189.5244 " fill="#FFFFFF" fill-opacity="0.00000" style="stroke:#181818;stroke-width:1;"/><text fill="#000000" font-family="Arial" font-size="14" font-weight="bold" lengthAdjust="spacing" textLength="46.6621" x="960" y="184.2226">Board</text></g><!--cluster LT--><g id="cluster_LT"><rect fill="#FFFFFF" fill-opacity="0.00000" height="113.3" rx="2.5" ry="2.5" style="stroke:#181818;stroke-width:1;" width="1213" x="7" y="323.5275"/><path d="M152.3584,323.5275 L152.3584,332.8244 L142.3584,342.8244 L7,342.8244 " fill="#FFFFFF" fill-opacity="0.00000" style="stroke:#181818;stroke-width:1;"/><text fill="#000000" font-family="Arial" font-size="14" font-weight="bold" lengthAdjust="spacing" textLength="135.3584" x="10" y="337.5226">Leadership Team</text></g><!--cluster Teams--><g id="cluster_Teams"><rect fill="#FFFFFF" fill-opacity="0.00000" height="260.59" rx="2.5" ry="2.5" style="stroke:#181818;stroke-width:1;" width="1166" x="26" y="468.8275"/><path d="M87.4131,468.8275 L87.4131,478.1244 L77.4131,488.1244 L26,488.1244 " fill="#FFFFFF" fill-opacity="0.00000" style="stroke:#181818;stroke-width:1;"/><text fill="#000000" font-family="Arial" font-size="14" font-weight="bold" lengthAdjust="spacing" textLength="51.4131" x="29" y="482.8226">Teams</text></g><!--cluster Beheer--><g id="cluster_Beheer"><rect fill="#FFFFFF" fill-opacity="0.00000" height="193.59" rx="2.5" ry="2.5" style="stroke:#181818;stroke-width:1;" width="204" x="50" y="511.8275"/><path d="M116.0273,511.8275 L116.0273,521.1244 L106.0273,531.1244 L50,531.1244 " fill="#FFFFFF" fill-opacity="0.00000" style="stroke:#181818;stroke-width:1;"/><text fill="#000000" font-family="Arial" font-size="14" font-weight="bold" lengthAdjust="spacing" textLength="56.0273" x="53" y="525.8226">Beheer</text></g><!--cluster Ontwikkeling--><g id="cluster_Ontwikkeling"><rect fill="#FFFFFF" fill-opacity="0.00000" height="193.59" rx="2.5" ry="2.5" style="stroke:#181818;stroke-width:1;" width="246" x="278" y="511.8275"/><path d="M391.9951,511.8275 L391.9951,521.1244 L381.9951,531.1244 L278,531.1244 " fill="#FFFFFF" fill-opacity="0.00000" style="stroke:#181818;stroke-width:1;"/><text fill="#000000" font-family="Arial" font-size="14" font-weight="bold" lengthAdjust="spacing" textLength="103.9951" x="281" y="525.8226">Ontwikkeling</text></g><!--cluster Sales & Marketing--><g id="cluster_Sales &amp; Marketing"><rect fill="#FFFFFF" fill-opacity="0.00000" height="97.29" rx="2.5" ry="2.5" style="stroke:#181818;stroke-width:1;" width="186" x="548" y="511.8275"/><path d="M702.6826,511.8275 L702.6826,521.1244 L692.6826,531.1244 L548,531.1244 " fill="#FFFFFF" fill-opacity="0.00000" style="stroke:#181818;stroke-width:1;"/><text fill="#000000" font-family="Arial" font-size="14" font-weight="bold" lengthAdjust="spacing" textLength="144.6826" x="551" y="525.8226">Sales &amp; Marketing</text></g><!--cluster Research & Innovation--><g id="cluster_Research &amp; Innovation"><rect fill="#FFFFFF" fill-opacity="0.00000" height="193.59" rx="2.5" ry="2.5" style="stroke:#181818;stroke-width:1;" width="204" x="758" y="511.8275"/><path d="M947.0879,511.8275 L947.0879,521.1244 L937.0879,531.1244 L758,531.1244 " fill="#FFFFFF" fill-opacity="0.00000" style="stroke:#181818;stroke-width:1;"/><text fill="#000000" font-family="Arial" font-size="14" font-weight="bold" lengthAdjust="spacing" textLength="179.0879" x="761" y="525.8226">Research &amp; Innovation</text></g><!--cluster People & Finance--><g id="cluster_People &amp; Finance"><rect fill="#FFFFFF" fill-opacity="0.00000" height="97.29" rx="2.5" ry="2.5" style="stroke:#181818;stroke-width:1;" width="182" x="986" y="511.8275"/><path d="M1133.1836,511.8275 L1133.1836,521.1244 L1123.1836,531.1244 L986,531.1244 " fill="#FFFFFF" fill-opacity="0.00000" style="stroke:#181818;stroke-width:1;"/><text fill="#000000" font-family="Arial" font-size="14" font-weight="bold" lengthAdjust="spacing" textLength="137.1836" x="989" y="525.8226">People &amp; Finance</text></g><!--entity SH1--><g id="elem_SH1"><rect fill="#87CEEB" height="46.2969" rx="2.5" ry="2.5" style="stroke:#181818;stroke-width:0.5;" width="171.1816" x="466.41" y="99.9375"/><rect fill="#87CEEB" height="10" style="stroke:#181818;stroke-width:0.5;" width="15" x="617.5916" y="104.9375"/><rect fill="#87CEEB" height="2" style="stroke:#181818;stroke-width:0.5;" width="4" x="615.5916" y="106.9375"/><rect fill="#87CEEB" height="2" style="stroke:#181818;stroke-width:0.5;" width="4" x="615.5916" y="110.9375"/><text fill="#000000" font-family="Arial" font-size="14" lengthAdjust="spacing" textLength="131.1816" x="481.41" y="132.9326">Shareholder 1 B.V.</text></g><!--entity SH2--><g id="elem_SH2"><rect fill="#87CEEB" height="46.2969" rx="2.5" ry="2.5" style="stroke:#181818;stroke-width:0.5;" width="171.1816" x="687.41" y="99.9375"/><rect fill="#87CEEB" height="10" style="stroke:#181818;stroke-width:0.5;" width="15" x="838.5916" y="104.9375"/><rect fill="#87CEEB" height="2" style="stroke:#181818;stroke-width:0.5;" width="4" x="836.5916" y="106.9375"/><rect fill="#87CEEB" height="2" style="stroke:#181818;stroke-width:0.5;" width="4" x="836.5916" y="110.9375"/><text fill="#000000" font-family="Arial" font-size="14" lengthAdjust="spacing" textLength="131.1816" x="702.41" y="132.9326">Shareholder 2 B.V.</text></g><!--entity SH3--><g id="elem_SH3"><rect fill="#87CEEB" height="46.2969" rx="2.5" ry="2.5" style="stroke:#181818;stroke-width:0.5;" width="171.1816" x="466.41" y="213.2275"/><rect fill="#87CEEB" height="10" style="stroke:#181818;stroke-width:0.5;" width="15" x="617.5916" y="218.2275"/><rect fill="#87CEEB" height="2" style="stroke:#181818;stroke-width:0.5;" width="4" x="615.5916" y="220.2275"/><rect fill="#87CEEB" height="2" style="stroke:#181818;stroke-width:0.5;" width="4" x="615.5916" y="224.2275"/><text fill="#000000" font-family="Arial" font-size="14" lengthAdjust="spacing" textLength="131.1816" x="481.41" y="246.2226">Shareholder 3 B.V.</text></g><!--entity AD--><g id="elem_AD"><rect fill="#98FB98" height="46.2969" rx="2.5" ry="2.5" style="stroke:#181818;stroke-width:0.5;" width="180.6221" x="980.69" y="213.2275"/><rect fill="#98FB98" height="10" style="stroke:#181818;stroke-width:0.5;" width="15" x="1141.3121" y="218.2275"/><rect fill="#98FB98" height="2" style="stroke:#181818;stroke-width:0.5;" width="4" x="1139.3121" y="220.2275"/><rect fill="#98FB98" height="2" style="stroke:#181818;stroke-width:0.5;" width="4" x="1139.3121" y="224.2275"/><text fill="#000000" font-family="Arial" font-size="14" lengthAdjust="spacing" textLength="140.6221" x="995.69" y="246.2226">Algemeen Directeur</text></g><!--entity TLB--><g id="elem_TLB"><rect fill="#FFA07A" height="46.2969" rx="2.5" ry="2.5" style="stroke:#181818;stroke-width:0.5;" width="172.2344" x="30.88" y="366.5275"/><rect fill="#FFA07A" height="10" style="stroke:#181818;stroke-width:0.5;" width="15" x="183.1144" y="371.5275"/><rect fill="#FFA07A" height="2" style="stroke:#181818;stroke-width:0.5;" width="4" x="181.1144" y="373.5275"/><rect fill="#FFA07A" height="2" style="stroke:#181818;stroke-width:0.5;" width="4" x="181.1144" y="377.5275"/><text fill="#000000" font-family="Arial" font-size="14" lengthAdjust="spacing" textLength="132.2344" x="45.88" y="399.5226">Team Lead Beheer</text></g><!--entity TLO--><g id="elem_TLO"><rect fill="#FFA07A" height="46.2969" rx="2.5" ry="2.5" style="stroke:#181818;stroke-width:0.5;" width="213.25" x="253.37" y="366.5275"/><rect fill="#FFA07A" height="10" style="stroke:#181818;stroke-width:0.5;" width="15" x="446.62" y="371.5275"/><rect fill="#FFA07A" height="2" style="stroke:#181818;stroke-width:0.5;" width="4" x="444.62" y="373.5275"/><rect fill="#FFA07A" height="2" style="stroke:#181818;stroke-width:0.5;" width="4" x="444.62" y="377.5275"/><text fill="#000000" font-family="Arial" font-size="14" lengthAdjust="spacing" textLength="173.25" x="268.37" y="399.5226">Team Lead Ontwikkeling</text></g><!--entity TLS--><g id="elem_TLS"><rect fill="#FFA07A" height="46.2969" rx="2.5" ry="2.5" style="stroke:#181818;stroke-width:0.5;" width="249.5146" x="516.24" y="366.5275"/><rect fill="#FFA07A" height="10" style="stroke:#181818;stroke-width:0.5;" width="15" x="745.7546" y="371.5275"/><rect fill="#FFA07A" height="2" style="stroke:#181818;stroke-width:0.5;" width="4" x="743.7546" y="373.5275"/><rect fill="#FFA07A" height="2" style="stroke:#181818;stroke-width:0.5;" width="4" x="743.7546" y="377.5275"/><text fill="#000000" font-family="Arial" font-size="14" lengthAdjust="spacing" textLength="209.5146" x="531.24" y="399.5226">Team Lead Sales &amp; Marketing</text></g><!--entity TLR--><g id="elem_TLR"><rect fill="#FFA07A" height="46.2969" rx="2.5" ry="2.5" style="stroke:#181818;stroke-width:0.5;" width="146.9346" x="815.53" y="366.5275"/><rect fill="#FFA07A" height="10" style="stroke:#181818;stroke-width:0.5;" width="15" x="942.4646" y="371.5275"/><rect fill="#FFA07A" height="2" style="stroke:#181818;stroke-width:0.5;" width="4" x="940.4646" y="373.5275"/><rect fill="#FFA07A" height="2" style="stroke:#181818;stroke-width:0.5;" width="4" x="940.4646" y="377.5275"/><text fill="#000000" font-family="Arial" font-size="14" lengthAdjust="spacing" textLength="106.9346" x="830.53" y="399.5226">Team Lead R&amp;I</text></g><!--entity TLP--><g id="elem_TLP"><rect fill="#FFA07A" height="46.2969" rx="2.5" ry="2.5" style="stroke:#181818;stroke-width:0.5;" width="149.5732" x="1012.21" y="366.5275"/><rect fill="#FFA07A" height="10" style="stroke:#181818;stroke-width:0.5;" width="15" x="1141.7832" y="371.5275"/><rect fill="#FFA07A" height="2" style="stroke:#181818;stroke-width:0.5;" width="4" x="1139.7832" y="373.5275"/><rect fill="#FFA07A" height="2" style="stroke:#181818;stroke-width:0.5;" width="4" x="1139.7832" y="377.5275"/><text fill="#000000" font-family="Arial" font-size="14" lengthAdjust="spacing" textLength="109.5732" x="1027.21" y="399.5226">Team Lead P&amp;F</text></g><!--entity TLB2--><g id="elem_TLB2"><rect fill="#FFA07A" height="46.2969" rx="2.5" ry="2.5" style="stroke:#181818;stroke-width:0.5;" width="172.2344" x="65.88" y="546.8275"/><rect fill="#FFA07A" height="10" style="stroke:#181818;stroke-width:0.5;" width="15" x="218.1144" y="551.8275"/><rect fill="#FFA07A" height="2" style="stroke:#181818;stroke-width:0.5;" width="4" x="216.1144" y="553.8275"/><rect fill="#FFA07A" height="2" style="stroke:#181818;stroke-width:0.5;" width="4" x="216.1144" y="557.8275"/><text fill="#000000" font-family="Arial" font-size="14" lengthAdjust="spacing" textLength="132.2344" x="80.88" y="579.8226">Team Lead Beheer</text></g><!--entity CON--><g id="elem_CON"><rect fill="#FFE4B5" height="46.2969" rx="2.5" ry="2.5" style="stroke:#181818;stroke-width:0.5;" width="122.9951" x="90.5" y="643.1175"/><rect fill="#FFE4B5" height="10" style="stroke:#181818;stroke-width:0.5;" width="15" x="193.4951" y="648.1175"/><rect fill="#FFE4B5" height="2" style="stroke:#181818;stroke-width:0.5;" width="4" x="191.4951" y="650.1175"/><rect fill="#FFE4B5" height="2" style="stroke:#181818;stroke-width:0.5;" width="4" x="191.4951" y="654.1175"/><text fill="#000000" font-family="Arial" font-size="14" lengthAdjust="spacing" textLength="82.9951" x="105.5" y="676.1126">Consultants</text></g><!--entity TLO2--><g id="elem_TLO2"><rect fill="#FFA07A" height="46.2969" rx="2.5" ry="2.5" style="stroke:#181818;stroke-width:0.5;" width="213.25" x="294.37" y="546.8275"/><rect fill="#FFA07A" height="10" style="stroke:#181818;stroke-width:0.5;" width="15" x="487.62" y="551.8275"/><rect fill="#FFA07A" height="2" style="stroke:#181818;stroke-width:0.5;" width="4" x="485.62" y="553.8275"/><rect fill="#FFA07A" height="2" style="stroke:#181818;stroke-width:0.5;" width="4" x="485.62" y="557.8275"/><text fill="#000000" font-family="Arial" font-size="14" lengthAdjust="spacing" textLength="173.25" x="309.37" y="579.8226">Team Lead Ontwikkeling</text></g><!--entity DEV--><g id="elem_DEV"><rect fill="#FFE4B5" height="46.2969" rx="2.5" ry="2.5" style="stroke:#181818;stroke-width:0.5;" width="119.2969" x="341.35" y="643.1175"/><rect fill="#FFE4B5" height="10" style="stroke:#181818;stroke-width:0.5;" width="15" x="440.6469" y="648.1175"/><rect fill="#FFE4B5" height="2" style="stroke:#181818;stroke-width:0.5;" width="4" x="438.6469" y="650.1175"/><rect fill="#FFE4B5" height="2" style="stroke:#181818;stroke-width:0.5;" width="4" x="438.6469" y="654.1175"/><text fill="#000000" font-family="Arial" font-size="14" lengthAdjust="spacing" textLength="79.2969" x="356.35" y="676.1126">Developers</text></g><!--entity TLS2--><g id="elem_TLS2"><rect fill="#FFA07A" height="46.2969" rx="2.5" ry="2.5" style="stroke:#181818;stroke-width:0.5;" width="154.0439" x="563.98" y="546.8275"/><rect fill="#FFA07A" height="10" style="stroke:#181818;stroke-width:0.5;" width="15" x="698.0239" y="551.8275"/><rect fill="#FFA07A" height="2" style="stroke:#181818;stroke-width:0.5;" width="4" x="696.0239" y="553.8275"/><rect fill="#FFA07A" height="2" style="stroke:#181818;stroke-width:0.5;" width="4" x="696.0239" y="557.8275"/><text fill="#000000" font-family="Arial" font-size="14" lengthAdjust="spacing" textLength="114.0439" x="578.98" y="579.8226">Team Lead S&amp;M</text></g><!--entity TLR2--><g id="elem_TLR2"><rect fill="#FFA07A" height="46.2969" rx="2.5" ry="2.5" style="stroke:#181818;stroke-width:0.5;" width="146.9346" x="792.53" y="546.8275"/><rect fill="#FFA07A" height="10" style="stroke:#181818;stroke-width:0.5;" width="15" x="919.4646" y="551.8275"/><rect fill="#FFA07A" height="2" style="stroke:#181818;stroke-width:0.5;" width="4" x="917.4646" y="553.8275"/><rect fill="#FFA07A" height="2" style="stroke:#181818;stroke-width:0.5;" width="4" x="917.4646" y="557.8275"/><text fill="#000000" font-family="Arial" font-size="14" lengthAdjust="spacing" textLength="106.9346" x="807.53" y="579.8226">Team Lead R&amp;I</text></g><!--entity SA--><g id="elem_SA"><rect fill="#FFE4B5" height="46.2969" rx="2.5" ry="2.5" style="stroke:#181818;stroke-width:0.5;" width="171.8584" x="774.07" y="643.1175"/><rect fill="#FFE4B5" height="10" style="stroke:#181818;stroke-width:0.5;" width="15" x="925.9284" y="648.1175"/><rect fill="#FFE4B5" height="2" style="stroke:#181818;stroke-width:0.5;" width="4" x="923.9284" y="650.1175"/><rect fill="#FFE4B5" height="2" style="stroke:#181818;stroke-width:0.5;" width="4" x="923.9284" y="654.1175"/><text fill="#000000" font-family="Arial" font-size="14" lengthAdjust="spacing" textLength="131.8584" x="789.07" y="676.1126">Solution Architects</text></g><!--entity TLP2--><g id="elem_TLP2"><rect fill="#FFA07A" height="46.2969" rx="2.5" ry="2.5" style="stroke:#181818;stroke-width:0.5;" width="149.5732" x="1002.21" y="546.8275"/><rect fill="#FFA07A" height="10" style="stroke:#181818;stroke-width:0.5;" width="15" x="1131.7832" y="551.8275"/><rect fill="#FFA07A" height="2" style="stroke:#181818;stroke-width:0.5;" width="4" x="1129.7832" y="553.8275"/><rect fill="#FFA07A" height="2" style="stroke:#181818;stroke-width:0.5;" width="4" x="1129.7832" y="557.8275"/><text fill="#000000" font-family="Arial" font-size="14" lengthAdjust="spacing" textLength="109.5732" x="1017.21" y="579.8226">Team Lead P&amp;F</text></g><!--link Shareholders to Board--><g id="link_Shareholders_Board"><path d="M917.4396,123.4175 C918.2699,123.4175 919.1566,123.4175 920.0977,123.4175 C921.9799,123.4175 924.0793,123.4175 926.3788,123.4175 C935.5768,123.4175 947.9759,123.4175 962.4736,123.4175 C991.4691,123.4175 1028.8594,123.4175 1065.8263,123.4175 C1139.76,123.4175 1212,123.4175 1212,123.4175 C1212,123.4175 1212,129.8313 1212,139.6022 C1212,144.4877 1212,150.2124 1212,156.3944 C1212,159.4854 1212,162.6907 1212,165.9626 C1212,166.7805 1212,167.6026 1212,168.4282 C1212,168.841 1212,163.2546 1212,163.669 " fill="#FFFFFF" fill-opacity="0.00000" id="Shareholders-to-Board" style="stroke:#808080;stroke-width:1;"/><polygon fill="#808080" points="1212,169.669,1216,160.669,1212,164.669,1208,160.669,1212,169.669" style="stroke:#808080;stroke-width:1;"/></g><!--link Board to LT--><g id="link_Board_LT"><path d="M1212,283.8016 C1212,284.0615 1212,284.3219 1212,284.5828 C1212,285.6265 1212,286.6784 1212,287.7375 C1212,296.2105 1212,305.1478 1212,314.0663 C1212,316.2959 1212,318.5243 1212,320.744 C1212,321.2989 1212,321.8533 1212,322.407 C1212,322.6839 1212,316.9606 1212,317.2371 " fill="#FFFFFF" fill-opacity="0.00000" id="Board-to-LT" style="stroke:#808080;stroke-width:1;"/><polygon fill="#808080" points="1212,323.2371,1216,314.2371,1212,318.2371,1208,314.2371,1212,323.2371" style="stroke:#808080;stroke-width:1;"/></g><!--link TLB to TLB2--><g id="link_TLB_TLB2"><path d="M134.5,413.2475 C134.5,447.7975 134.5,505.8375 134.5,540.3975 " fill="#FFFFFF" fill-opacity="0.00000" id="TLB-to-TLB2" style="stroke:#808080;stroke-width:1;"/><polygon fill="#808080" points="134.5,546.3975,138.5,537.3975,134.5,541.3975,130.5,537.3975,134.5,546.3975" style="stroke:#808080;stroke-width:1;"/></g><!--link TLO to TLO2--><g id="link_TLO_TLO2"><path d="M380.5,413.2475 C380.5,447.7975 380.5,505.8375 380.5,540.3975 " fill="#FFFFFF" fill-opacity="0.00000" id="TLO-to-TLO2" style="stroke:#808080;stroke-width:1;"/><polygon fill="#808080" points="380.5,546.3975,384.5,537.3975,380.5,541.3975,376.5,537.3975,380.5,546.3975" style="stroke:#808080;stroke-width:1;"/></g><!--link TLS to TLS2--><g id="link_TLS_TLS2"><path d="M641,413.2475 C641,447.7975 641,505.8375 641,540.3975 " fill="#FFFFFF" fill-opacity="0.00000" id="TLS-to-TLS2" style="stroke:#808080;stroke-width:1;"/><polygon fill="#808080" points="641,546.3975,645,537.3975,641,541.3975,637,537.3975,641,546.3975" style="stroke:#808080;stroke-width:1;"/></g><!--link TLR to TLR2--><g id="link_TLR_TLR2"><path d="M877.5,413.2475 C877.5,447.7975 877.5,505.8375 877.5,540.3975 " fill="#FFFFFF" fill-opacity="0.00000" id="TLR-to-TLR2" style="stroke:#808080;stroke-width:1;"/><polygon fill="#808080" points="877.5,546.3975,881.5,537.3975,877.5,541.3975,873.5,537.3975,877.5,546.3975" style="stroke:#808080;stroke-width:1;"/></g><!--link TLP to TLP2--><g id="link_TLP_TLP2"><path d="M1082,413.2475 C1082,447.7975 1082,505.8375 1082,540.3975 " fill="#FFFFFF" fill-opacity="0.00000" id="TLP-to-TLP2" style="stroke:#808080;stroke-width:1;"/><polygon fill="#808080" points="1082,546.3975,1086,537.3975,1082,541.3975,1078,537.3975,1082,546.3975" style="stroke:#808080;stroke-width:1;"/></g><!--link TLB2 to CON--><g id="link_TLB2_CON"><path d="M152,593.2875 C152,608.3075 152,621.7875 152,636.8375 " fill="#FFFFFF" fill-opacity="0.00000" id="TLB2-to-CON" style="stroke:#808080;stroke-width:1;"/><polygon fill="#808080" points="152,642.8375,156,633.8375,152,637.8375,148,633.8375,152,642.8375" style="stroke:#808080;stroke-width:1;"/></g><!--link TLO2 to DEV--><g id="link_TLO2_DEV"><path d="M401,593.2875 C401,608.3075 401,621.7875 401,636.8375 " fill="#FFFFFF" fill-opacity="0.00000" id="TLO2-to-DEV" style="stroke:#808080;stroke-width:1;"/><polygon fill="#808080" points="401,642.8375,405,633.8375,401,637.8375,397,633.8375,401,642.8375" style="stroke:#808080;stroke-width:1;"/></g><!--link TLR2 to SA--><g id="link_TLR2_SA"><path d="M866,593.2875 C866,608.3075 866,621.7875 866,636.8375 " fill="#FFFFFF" fill-opacity="0.00000" id="TLR2-to-SA" style="stroke:#808080;stroke-width:1;"/><polygon fill="#808080" points="866,642.8375,870,633.8375,866,637.8375,862,633.8375,866,642.8375" style="stroke:#808080;stroke-width:1;"/></g><text fill="#888888" font-family="Arial" font-size="10" lengthAdjust="spacing" textLength="70.835" x="574.0825" y="743.6997">OpenWoo.app</text><!--SRC=[ZLJ1Rk8m4BtxAqOWqLDHIxSgtSDA2H1j9TgW17KFgprOC10BOqUsqwfQxR-lOm8RuYmf5yIRzsOUC-Cnp724M6sfO9eQXf0QLQnCKIYoaTAW-WfnZkA7b4EQvoH3kcvYHE-OoAcYUrZZXXRSH5AO5xf721IZl1ONSeqQSxY_gO6AYfq7weokvJiJMzXGhh4MuKoW-SWHf3AP9EGAqemgp2ItpZJPgB9mhuxru3S1-rd9VIu52dCMXbi8Xw_37b0DwVTRw8yV9hDPU4angYj6dr7SrHLt9yMVqduegLeVVRiVBOO3liKzee0fKxWoM2YNB9X2_t4SXO_ZGwwvdGyiqRR9vJjcdRknwOpbBkYaywLVnIbTZX0pn4EDvJo4VXG5Dm_1__cnCEzijqCxdMsbYhjLAUMeOG3FLEtG_9EctT9ay5IHasxoOX1LvCM9xFfLKauxutuSUtzLjS1H77ASKDMP0-sJ3HoTUMo89b9e-sgeCDhn9_5BIPzz2UyTtJezEAetsVDrFe4ETstZkkXnYc_8PUvUawLFPw_j5hs9UZvRPjvXDXqy7_VYtEEfQcAl2bMhpAPz4aA-sKicXLUvbTLPlRPe5pkKIbwuie4jmOnzf8TMfK5xfnOeStjx1n0nGSKAFRjDGgVJsfOt- -IMFK7k_d9v1pIfNqYu_jdVAlhnw_fRTOw8-phXzXOB6vil2IdFGGCk5voK3zx3un9FVJmjySJ7an9V-FXYv0gFcX7xL8XRtGPkzvEuWJNmDFWB]--></g></svg>