<svg xmlns="http://www.w3.org/2000/svg" xmlns:xlink="http://www.w3.org/1999/xlink" contentStyleType="text/css" data-diagram-type="DESCRIPTION" height="850px" preserveAspectRatio="none" style="width:2032px;height:850px;background:#FFFFFF;" version="1.1" viewBox="0 0 2032 850" width="2032px" zoomAndPan="magnify"><title>Organisatie Structuur</title><defs/><g><text fill="#888888" font-family="Arial" font-size="10" lengthAdjust="spacing" textLength="70.835" x="1947.165" y="9.2822">OpenWoo.app</text><text fill="#000000" font-family="Arial" font-size="14" font-weight="bold" lengthAdjust="spacing" textLength="172.1563" x="922.9219" y="35.6357">Organisatie Structuur</text><!--cluster Shareholders--><g id="cluster_Shareholders"><rect fill="#FFFFFF" fill-opacity="0.00000" height="226.59" rx="2.5" ry="2.5" style="stroke:#181818;stroke-width:1;" width="475" x="935" y="56.9375"/><path d="M1050.0342,56.9375 L1050.0342,66.2344 L1040.0342,76.2344 L935,76.2344 " fill="#FFFFFF" fill-opacity="0.00000" style="stroke:#181818;stroke-width:1;"/><text fill="#000000" font-family="Arial" font-size="14" font-weight="bold" lengthAdjust="spacing" textLength="105.0342" x="938" y="70.9326">Shareholders</text></g><!--cluster Board--><g id="cluster_Board"><rect fill="#FFFFFF" fill-opacity="0.00000" height="113.29" rx="2.5" ry="2.5" style="stroke:#181818;stroke-width:1;" width="263" x="1450" y="170.2375"/><path d="M1506.6621,170.2375 L1506.6621,179.5344 L1496.6621,189.5344 L1450,189.5344 " fill="#FFFFFF" fill-opacity="0.00000" style="stroke:#181818;stroke-width:1;"/><text fill="#000000" font-family="Arial" font-size="14" font-weight="bold" lengthAdjust="spacing" textLength="46.6621" x="1453" y="184.2326">Board</text></g><!--cluster LT--><g id="cluster_LT"><rect fill="#FFFFFF" fill-opacity="0.00000" height="113.3" rx="2.5" ry="2.5" style="stroke:#181818;stroke-width:1;" width="1533" x="180" y="323.5275"/><path d="M325.3584,323.5275 L325.3584,332.8244 L315.3584,342.8244 L180,342.8244 " fill="#FFFFFF" fill-opacity="0.00000" style="stroke:#181818;stroke-width:1;"/><text fill="#000000" font-family="Arial" font-size="14" font-weight="bold" lengthAdjust="spacing" textLength="135.3584" x="183" y="337.5226">Leadership Team</text></g><!--cluster Teams--><g id="cluster_Teams"><rect fill="#FFFFFF" fill-opacity="0.00000" height="356.89" rx="2.5" ry="2.5" style="stroke:#181818;stroke-width:1;" width="2019" x="7" y="468.8275"/><path d="M68.4131,468.8275 L68.4131,478.1244 L58.4131,488.1244 L7,488.1244 " fill="#FFFFFF" fill-opacity="0.00000" style="stroke:#181818;stroke-width:1;"/><text fill="#000000" font-family="Arial" font-size="14" font-weight="bold" lengthAdjust="spacing" textLength="51.4131" x="10" y="482.8226">Teams</text></g><!--cluster HR & Quality--><g id="cluster_HR &amp; Quality"><rect fill="#FFFFFF" fill-opacity="0.00000" height="193.59" rx="2.5" ry="2.5" style="stroke:#181818;stroke-width:1;" width="244" x="31" y="511.8275"/><path d="M142.1855,511.8275 L142.1855,521.1244 L132.1855,531.1244 L31,531.1244 " fill="#FFFFFF" fill-opacity="0.00000" style="stroke:#181818;stroke-width:1;"/><text fill="#000000" font-family="Arial" font-size="14" font-weight="bold" lengthAdjust="spacing" textLength="101.1855" x="34" y="525.8226">HR &amp; Quality</text></g><!--cluster Finance--><g id="cluster_Finance"><rect fill="#FFFFFF" fill-opacity="0.00000" height="193.59" rx="2.5" ry="2.5" style="stroke:#181818;stroke-width:1;" width="208" x="299" y="511.8275"/><path d="M370.5371,511.8275 L370.5371,521.1244 L360.5371,531.1244 L299,531.1244 " fill="#FFFFFF" fill-opacity="0.00000" style="stroke:#181818;stroke-width:1;"/><text fill="#000000" font-family="Arial" font-size="14" font-weight="bold" lengthAdjust="spacing" textLength="61.5371" x="302" y="525.8226">Finance</text></g><!--cluster Operations--><g id="cluster_Operations"><rect fill="#FFFFFF" fill-opacity="0.00000" height="193.59" rx="2.5" ry="2.5" style="stroke:#181818;stroke-width:1;" width="374" x="531" y="511.8275"/><path d="M628.1787,511.8275 L628.1787,521.1244 L618.1787,531.1244 L531,531.1244 " fill="#FFFFFF" fill-opacity="0.00000" style="stroke:#181818;stroke-width:1;"/><text fill="#000000" font-family="Arial" font-size="14" font-weight="bold" lengthAdjust="spacing" textLength="87.1787" x="534" y="525.8226">Operations</text></g><!--cluster Development--><g id="cluster_Development"><rect fill="#FFFFFF" fill-opacity="0.00000" height="289.89" rx="2.5" ry="2.5" style="stroke:#181818;stroke-width:1;" width="376" x="929" y="511.8275"/><path d="M1043.918,511.8275 L1043.918,521.1244 L1033.918,531.1244 L929,531.1244 " fill="#FFFFFF" fill-opacity="0.00000" style="stroke:#181818;stroke-width:1;"/><text fill="#000000" font-family="Arial" font-size="14" font-weight="bold" lengthAdjust="spacing" textLength="104.918" x="932" y="525.8226">Development</text></g><!--cluster Sales & Marketing--><g id="cluster_Sales &amp; Marketing"><rect fill="#FFFFFF" fill-opacity="0.00000" height="193.59" rx="2.5" ry="2.5" style="stroke:#181818;stroke-width:1;" width="445" x="1329" y="511.8275"/><path d="M1483.6826,511.8275 L1483.6826,521.1244 L1473.6826,531.1244 L1329,531.1244 " fill="#FFFFFF" fill-opacity="0.00000" style="stroke:#181818;stroke-width:1;"/><text fill="#000000" font-family="Arial" font-size="14" font-weight="bold" lengthAdjust="spacing" textLength="144.6826" x="1332" y="525.8226">Sales &amp; Marketing</text></g><!--cluster R&I--><g id="cluster_R&amp;I"><rect fill="#FFFFFF" fill-opacity="0.00000" height="193.59" rx="2.5" ry="2.5" style="stroke:#181818;stroke-width:1;" width="204" x="1798" y="511.8275"/><path d="M1836.1982,511.8275 L1836.1982,521.1244 L1826.1982,531.1244 L1798,531.1244 " fill="#FFFFFF" fill-opacity="0.00000" style="stroke:#181818;stroke-width:1;"/><text fill="#000000" font-family="Arial" font-size="14" font-weight="bold" lengthAdjust="spacing" textLength="28.1982" x="1801" y="525.8226">R&amp;I</text></g><!--entity SH1--><g id="elem_SH1"><rect fill="#87CEEB" height="46.2969" rx="2.5" ry="2.5" style="stroke:#181818;stroke-width:0.5;" width="171.1816" x="959.41" y="99.9375"/><rect fill="#87CEEB" height="10" style="stroke:#181818;stroke-width:0.5;" width="15" x="1110.5916" y="104.9375"/><rect fill="#87CEEB" height="2" style="stroke:#181818;stroke-width:0.5;" width="4" x="1108.5916" y="106.9375"/><rect fill="#87CEEB" height="2" style="stroke:#181818;stroke-width:0.5;" width="4" x="1108.5916" y="110.9375"/><text fill="#000000" font-family="Arial" font-size="14" lengthAdjust="spacing" textLength="131.1816" x="974.41" y="132.9326">Shareholder 1 B.V.</text></g><!--entity SH2--><g id="elem_SH2"><rect fill="#87CEEB" height="46.2969" rx="2.5" ry="2.5" style="stroke:#181818;stroke-width:0.5;" width="171.1816" x="1180.41" y="99.9375"/><rect fill="#87CEEB" height="10" style="stroke:#181818;stroke-width:0.5;" width="15" x="1331.5916" y="104.9375"/><rect fill="#87CEEB" height="2" style="stroke:#181818;stroke-width:0.5;" width="4" x="1329.5916" y="106.9375"/><rect fill="#87CEEB" height="2" style="stroke:#181818;stroke-width:0.5;" width="4" x="1329.5916" y="110.9375"/><text fill="#000000" font-family="Arial" font-size="14" lengthAdjust="spacing" textLength="131.1816" x="1195.41" y="132.9326">Shareholder 2 B.V.</text></g><!--entity SH3--><g id="elem_SH3"><rect fill="#87CEEB" height="46.2969" rx="2.5" ry="2.5" style="stroke:#181818;stroke-width:0.5;" width="171.1816" x="959.41" y="213.2375"/><rect fill="#87CEEB" height="10" style="stroke:#181818;stroke-width:0.5;" width="15" x="1110.5916" y="218.2375"/><rect fill="#87CEEB" height="2" style="stroke:#181818;stroke-width:0.5;" width="4" x="1108.5916" y="220.2375"/><rect fill="#87CEEB" height="2" style="stroke:#181818;stroke-width:0.5;" width="4" x="1108.5916" y="224.2375"/><text fill="#000000" font-family="Arial" font-size="14" lengthAdjust="spacing" textLength="131.1816" x="974.41" y="246.2326">Shareholder 3 B.V.</text></g><!--entity AD--><g id="elem_AD"><rect fill="#98FB98" height="46.2969" rx="2.5" ry="2.5" style="stroke:#181818;stroke-width:0.5;" width="180.6221" x="1473.69" y="213.2375"/><rect fill="#98FB98" height="10" style="stroke:#181818;stroke-width:0.5;" width="15" x="1634.3121" y="218.2375"/><rect fill="#98FB98" height="2" style="stroke:#181818;stroke-width:0.5;" width="4" x="1632.3121" y="220.2375"/><rect fill="#98FB98" height="2" style="stroke:#181818;stroke-width:0.5;" width="4" x="1632.3121" y="224.2375"/><text fill="#000000" font-family="Arial" font-size="14" lengthAdjust="spacing" textLength="140.6221" x="1488.69" y="246.2326">Algemeen Directeur</text></g><!--entity TLHQ--><g id="elem_TLHQ"><rect fill="#FFA07A" height="46.2969" rx="2.5" ry="2.5" style="stroke:#181818;stroke-width:0.5;" width="212.2588" x="203.87" y="366.5275"/><rect fill="#FFA07A" height="10" style="stroke:#181818;stroke-width:0.5;" width="15" x="396.1288" y="371.5275"/><rect fill="#FFA07A" height="2" style="stroke:#181818;stroke-width:0.5;" width="4" x="394.1288" y="373.5275"/><rect fill="#FFA07A" height="2" style="stroke:#181818;stroke-width:0.5;" width="4" x="394.1288" y="377.5275"/><text fill="#000000" font-family="Arial" font-size="14" lengthAdjust="spacing" textLength="172.2588" x="218.87" y="399.5226">Team Lead HR &amp; Quality</text></g><!--entity TLF--><g id="elem_TLF"><rect fill="#FFA07A" height="46.2969" rx="2.5" ry="2.5" style="stroke:#181818;stroke-width:0.5;" width="176.7393" x="465.63" y="366.5275"/><rect fill="#FFA07A" height="10" style="stroke:#181818;stroke-width:0.5;" width="15" x="622.3693" y="371.5275"/><rect fill="#FFA07A" height="2" style="stroke:#181818;stroke-width:0.5;" width="4" x="620.3693" y="373.5275"/><rect fill="#FFA07A" height="2" style="stroke:#181818;stroke-width:0.5;" width="4" x="620.3693" y="377.5275"/><text fill="#000000" font-family="Arial" font-size="14" lengthAdjust="spacing" textLength="136.7393" x="480.63" y="399.5226">Team Lead Finance</text></g><!--entity TLO--><g id="elem_TLO"><rect fill="#FFA07A" height="46.2969" rx="2.5" ry="2.5" style="stroke:#181818;stroke-width:0.5;" width="199.127" x="692.44" y="366.5275"/><rect fill="#FFA07A" height="10" style="stroke:#181818;stroke-width:0.5;" width="15" x="871.567" y="371.5275"/><rect fill="#FFA07A" height="2" style="stroke:#181818;stroke-width:0.5;" width="4" x="869.567" y="373.5275"/><rect fill="#FFA07A" height="2" style="stroke:#181818;stroke-width:0.5;" width="4" x="869.567" y="377.5275"/><text fill="#000000" font-family="Arial" font-size="14" lengthAdjust="spacing" textLength="159.127" x="707.44" y="399.5226">Team Lead Operations</text></g><!--entity TLD--><g id="elem_TLD"><rect fill="#FFA07A" height="46.2969" rx="2.5" ry="2.5" style="stroke:#181818;stroke-width:0.5;" width="216.4082" x="941.8" y="366.5275"/><rect fill="#FFA07A" height="10" style="stroke:#181818;stroke-width:0.5;" width="15" x="1138.2082" y="371.5275"/><rect fill="#FFA07A" height="2" style="stroke:#181818;stroke-width:0.5;" width="4" x="1136.2082" y="373.5275"/><rect fill="#FFA07A" height="2" style="stroke:#181818;stroke-width:0.5;" width="4" x="1136.2082" y="377.5275"/><text fill="#000000" font-family="Arial" font-size="14" lengthAdjust="spacing" textLength="176.4082" x="956.8" y="399.5226">Team Lead Development</text></g><!--entity TLSM--><g id="elem_TLSM"><rect fill="#FFA07A" height="46.2969" rx="2.5" ry="2.5" style="stroke:#181818;stroke-width:0.5;" width="249.5146" x="1208.24" y="366.5275"/><rect fill="#FFA07A" height="10" style="stroke:#181818;stroke-width:0.5;" width="15" x="1437.7546" y="371.5275"/><rect fill="#FFA07A" height="2" style="stroke:#181818;stroke-width:0.5;" width="4" x="1435.7546" y="373.5275"/><rect fill="#FFA07A" height="2" style="stroke:#181818;stroke-width:0.5;" width="4" x="1435.7546" y="377.5275"/><text fill="#000000" font-family="Arial" font-size="14" lengthAdjust="spacing" textLength="209.5146" x="1223.24" y="399.5226">Team Lead Sales &amp; Marketing</text></g><!--entity TLRI--><g id="elem_TLRI"><rect fill="#FFA07A" height="46.2969" rx="2.5" ry="2.5" style="stroke:#181818;stroke-width:0.5;" width="146.9346" x="1507.53" y="366.5275"/><rect fill="#FFA07A" height="10" style="stroke:#181818;stroke-width:0.5;" width="15" x="1634.4646" y="371.5275"/><rect fill="#FFA07A" height="2" style="stroke:#181818;stroke-width:0.5;" width="4" x="1632.4646" y="373.5275"/><rect fill="#FFA07A" height="2" style="stroke:#181818;stroke-width:0.5;" width="4" x="1632.4646" y="377.5275"/><text fill="#000000" font-family="Arial" font-size="14" lengthAdjust="spacing" textLength="106.9346" x="1522.53" y="399.5226">Team Lead R&amp;I</text></g><!--entity HRL--><g id="elem_HRL"><rect fill="#FFA07A" height="46.2969" rx="2.5" ry="2.5" style="stroke:#181818;stroke-width:0.5;" width="212.2588" x="46.87" y="546.8275"/><rect fill="#FFA07A" height="10" style="stroke:#181818;stroke-width:0.5;" width="15" x="239.1288" y="551.8275"/><rect fill="#FFA07A" height="2" style="stroke:#181818;stroke-width:0.5;" width="4" x="237.1288" y="553.8275"/><rect fill="#FFA07A" height="2" style="stroke:#181818;stroke-width:0.5;" width="4" x="237.1288" y="557.8275"/><text fill="#000000" font-family="Arial" font-size="14" lengthAdjust="spacing" textLength="172.2588" x="61.87" y="579.8226">Team Lead HR &amp; Quality</text></g><!--entity QM--><g id="elem_QM"><rect fill="#FFE4B5" height="46.2969" rx="2.5" ry="2.5" style="stroke:#181818;stroke-width:0.5;" width="155.8418" x="75.08" y="643.1275"/><rect fill="#FFE4B5" height="10" style="stroke:#181818;stroke-width:0.5;" width="15" x="210.9218" y="648.1275"/><rect fill="#FFE4B5" height="2" style="stroke:#181818;stroke-width:0.5;" width="4" x="208.9218" y="650.1275"/><rect fill="#FFE4B5" height="2" style="stroke:#181818;stroke-width:0.5;" width="4" x="208.9218" y="654.1275"/><text fill="#000000" font-family="Arial" font-size="14" lengthAdjust="spacing" textLength="115.8418" x="90.08" y="676.1226">Quality Manager</text></g><!--entity FL--><g id="elem_FL"><rect fill="#FFA07A" height="46.2969" rx="2.5" ry="2.5" style="stroke:#181818;stroke-width:0.5;" width="176.7393" x="314.63" y="546.8275"/><rect fill="#FFA07A" height="10" style="stroke:#181818;stroke-width:0.5;" width="15" x="471.3693" y="551.8275"/><rect fill="#FFA07A" height="2" style="stroke:#181818;stroke-width:0.5;" width="4" x="469.3693" y="553.8275"/><rect fill="#FFA07A" height="2" style="stroke:#181818;stroke-width:0.5;" width="4" x="469.3693" y="557.8275"/><text fill="#000000" font-family="Arial" font-size="14" lengthAdjust="spacing" textLength="136.7393" x="329.63" y="579.8226">Team Lead Finance</text></g><!--entity FC--><g id="elem_FC"><rect fill="#FFE4B5" height="46.2969" rx="2.5" ry="2.5" style="stroke:#181818;stroke-width:0.5;" width="175.9463" x="315.03" y="643.1275"/><rect fill="#FFE4B5" height="10" style="stroke:#181818;stroke-width:0.5;" width="15" x="470.9763" y="648.1275"/><rect fill="#FFE4B5" height="2" style="stroke:#181818;stroke-width:0.5;" width="4" x="468.9763" y="650.1275"/><rect fill="#FFE4B5" height="2" style="stroke:#181818;stroke-width:0.5;" width="4" x="468.9763" y="654.1275"/><text fill="#000000" font-family="Arial" font-size="14" lengthAdjust="spacing" textLength="135.9463" x="330.03" y="676.1226">Financial Controller</text></g><!--entity OL--><g id="elem_OL"><rect fill="#FFA07A" height="46.2969" rx="2.5" ry="2.5" style="stroke:#181818;stroke-width:0.5;" width="199.127" x="689.44" y="546.8275"/><rect fill="#FFA07A" height="10" style="stroke:#181818;stroke-width:0.5;" width="15" x="868.567" y="551.8275"/><rect fill="#FFA07A" height="2" style="stroke:#181818;stroke-width:0.5;" width="4" x="866.567" y="553.8275"/><rect fill="#FFA07A" height="2" style="stroke:#181818;stroke-width:0.5;" width="4" x="866.567" y="557.8275"/><text fill="#000000" font-family="Arial" font-size="14" lengthAdjust="spacing" textLength="159.127" x="704.44" y="579.8226">Team Lead Operations</text></g><!--entity SE--><g id="elem_SE"><rect fill="#FFE4B5" height="46.2969" rx="2.5" ry="2.5" style="stroke:#181818;stroke-width:0.5;" width="169.4385" x="547.28" y="643.1275"/><rect fill="#FFE4B5" height="10" style="stroke:#181818;stroke-width:0.5;" width="15" x="696.7185" y="648.1275"/><rect fill="#FFE4B5" height="2" style="stroke:#181818;stroke-width:0.5;" width="4" x="694.7185" y="650.1275"/><rect fill="#FFE4B5" height="2" style="stroke:#181818;stroke-width:0.5;" width="4" x="694.7185" y="654.1275"/><text fill="#000000" font-family="Arial" font-size="14" lengthAdjust="spacing" textLength="129.4385" x="562.28" y="676.1226">Support Engineers</text></g><!--entity CON--><g id="elem_CON"><rect fill="#FFE4B5" height="46.2969" rx="2.5" ry="2.5" style="stroke:#181818;stroke-width:0.5;" width="122.9951" x="766.5" y="643.1275"/><rect fill="#FFE4B5" height="10" style="stroke:#181818;stroke-width:0.5;" width="15" x="869.4951" y="648.1275"/><rect fill="#FFE4B5" height="2" style="stroke:#181818;stroke-width:0.5;" width="4" x="867.4951" y="650.1275"/><rect fill="#FFE4B5" height="2" style="stroke:#181818;stroke-width:0.5;" width="4" x="867.4951" y="654.1275"/><text fill="#000000" font-family="Arial" font-size="14" lengthAdjust="spacing" textLength="82.9951" x="781.5" y="676.1226">Consultants</text></g><!--entity DL--><g id="elem_DL"><rect fill="#FFA07A" height="46.2969" rx="2.5" ry="2.5" style="stroke:#181818;stroke-width:0.5;" width="216.4082" x="944.8" y="546.8275"/><rect fill="#FFA07A" height="10" style="stroke:#181818;stroke-width:0.5;" width="15" x="1141.2082" y="551.8275"/><rect fill="#FFA07A" height="2" style="stroke:#181818;stroke-width:0.5;" width="4" x="1139.2082" y="553.8275"/><rect fill="#FFA07A" height="2" style="stroke:#181818;stroke-width:0.5;" width="4" x="1139.2082" y="557.8275"/><text fill="#000000" font-family="Arial" font-size="14" lengthAdjust="spacing" textLength="176.4082" x="959.8" y="579.8226">Team Lead Development</text></g><!--entity PO--><g id="elem_PO"><rect fill="#FFE4B5" height="46.2969" rx="2.5" ry="2.5" style="stroke:#181818;stroke-width:0.5;" width="143.8721" x="945.06" y="643.1275"/><rect fill="#FFE4B5" height="10" style="stroke:#181818;stroke-width:0.5;" width="15" x="1068.9321" y="648.1275"/><rect fill="#FFE4B5" height="2" style="stroke:#181818;stroke-width:0.5;" width="4" x="1066.9321" y="650.1275"/><rect fill="#FFE4B5" height="2" style="stroke:#181818;stroke-width:0.5;" width="4" x="1066.9321" y="654.1275"/><text fill="#000000" font-family="Arial" font-size="14" lengthAdjust="spacing" textLength="103.8721" x="960.06" y="676.1226">Product Owner</text></g><!--entity LD--><g id="elem_LD"><rect fill="#FFE4B5" height="46.2969" rx="2.5" ry="2.5" style="stroke:#181818;stroke-width:0.5;" width="150.332" x="1138.83" y="643.1275"/><rect fill="#FFE4B5" height="10" style="stroke:#181818;stroke-width:0.5;" width="15" x="1269.162" y="648.1275"/><rect fill="#FFE4B5" height="2" style="stroke:#181818;stroke-width:0.5;" width="4" x="1267.162" y="650.1275"/><rect fill="#FFE4B5" height="2" style="stroke:#181818;stroke-width:0.5;" width="4" x="1267.162" y="654.1275"/><text fill="#000000" font-family="Arial" font-size="14" lengthAdjust="spacing" textLength="110.332" x="1153.83" y="676.1226">Lead Developer</text></g><!--entity DEV--><g id="elem_DEV"><rect fill="#FFE4B5" height="46.2969" rx="2.5" ry="2.5" style="stroke:#181818;stroke-width:0.5;" width="119.2969" x="1154.35" y="739.4175"/><rect fill="#FFE4B5" height="10" style="stroke:#181818;stroke-width:0.5;" width="15" x="1253.6469" y="744.4175"/><rect fill="#FFE4B5" height="2" style="stroke:#181818;stroke-width:0.5;" width="4" x="1251.6469" y="746.4175"/><rect fill="#FFE4B5" height="2" style="stroke:#181818;stroke-width:0.5;" width="4" x="1251.6469" y="750.4175"/><text fill="#000000" font-family="Arial" font-size="14" lengthAdjust="spacing" textLength="79.2969" x="1169.35" y="772.4126">Developers</text></g><!--entity CL--><g id="elem_CL"><rect fill="#FFA07A" height="46.2969" rx="2.5" ry="2.5" style="stroke:#181818;stroke-width:0.5;" width="255.9541" x="1345.02" y="546.8275"/><rect fill="#FFA07A" height="10" style="stroke:#181818;stroke-width:0.5;" width="15" x="1580.9741" y="551.8275"/><rect fill="#FFA07A" height="2" style="stroke:#181818;stroke-width:0.5;" width="4" x="1578.9741" y="553.8275"/><rect fill="#FFA07A" height="2" style="stroke:#181818;stroke-width:0.5;" width="4" x="1578.9741" y="557.8275"/><text fill="#000000" font-family="Arial" font-size="14" lengthAdjust="spacing" textLength="215.9541" x="1360.02" y="579.8226">Team Lead Sales &amp; Marketing"</text></g><!--entity SS--><g id="elem_SS"><rect fill="#FFE4B5" height="46.2969" rx="2.5" ry="2.5" style="stroke:#181818;stroke-width:0.5;" width="137.0566" x="1345.47" y="643.1275"/><rect fill="#FFE4B5" height="10" style="stroke:#181818;stroke-width:0.5;" width="15" x="1462.5266" y="648.1275"/><rect fill="#FFE4B5" height="2" style="stroke:#181818;stroke-width:0.5;" width="4" x="1460.5266" y="650.1275"/><rect fill="#FFE4B5" height="2" style="stroke:#181818;stroke-width:0.5;" width="4" x="1460.5266" y="654.1275"/><text fill="#000000" font-family="Arial" font-size="14" lengthAdjust="spacing" textLength="97.0566" x="1360.47" y="676.1226">Sales Support</text></g><!--entity MC--><g id="elem_MC"><rect fill="#FFE4B5" height="46.2969" rx="2.5" ry="2.5" style="stroke:#181818;stroke-width:0.5;" width="225.0693" x="1532.47" y="643.1275"/><rect fill="#FFE4B5" height="10" style="stroke:#181818;stroke-width:0.5;" width="15" x="1737.5393" y="648.1275"/><rect fill="#FFE4B5" height="2" style="stroke:#181818;stroke-width:0.5;" width="4" x="1735.5393" y="650.1275"/><rect fill="#FFE4B5" height="2" style="stroke:#181818;stroke-width:0.5;" width="4" x="1735.5393" y="654.1275"/><text fill="#000000" font-family="Arial" font-size="14" lengthAdjust="spacing" textLength="185.0693" x="1547.47" y="676.1226">Marketing Communication</text></g><!--entity RDL--><g id="elem_RDL"><rect fill="#FFA07A" height="46.2969" rx="2.5" ry="2.5" style="stroke:#181818;stroke-width:0.5;" width="146.9346" x="1819.53" y="546.8275"/><rect fill="#FFA07A" height="10" style="stroke:#181818;stroke-width:0.5;" width="15" x="1946.4646" y="551.8275"/><rect fill="#FFA07A" height="2" style="stroke:#181818;stroke-width:0.5;" width="4" x="1944.4646" y="553.8275"/><rect fill="#FFA07A" height="2" style="stroke:#181818;stroke-width:0.5;" width="4" x="1944.4646" y="557.8275"/><text fill="#000000" font-family="Arial" font-size="14" lengthAdjust="spacing" textLength="106.9346" x="1834.53" y="579.8226">Team Lead R&amp;I</text></g><!--entity SA--><g id="elem_SA"><rect fill="#FFE4B5" height="46.2969" rx="2.5" ry="2.5" style="stroke:#181818;stroke-width:0.5;" width="171.8584" x="1814.07" y="643.1275"/><rect fill="#FFE4B5" height="10" style="stroke:#181818;stroke-width:0.5;" width="15" x="1965.9284" y="648.1275"/><rect fill="#FFE4B5" height="2" style="stroke:#181818;stroke-width:0.5;" width="4" x="1963.9284" y="650.1275"/><rect fill="#FFE4B5" height="2" style="stroke:#181818;stroke-width:0.5;" width="4" x="1963.9284" y="654.1275"/><text fill="#000000" font-family="Arial" font-size="14" lengthAdjust="spacing" textLength="131.8584" x="1829.07" y="676.1226">Solution Architects</text></g><!--link Shareholders to Board--><g id="link_Shareholders_Board"><path d="M1410.4396,123.7175 C1411.2699,123.7175 1412.1566,123.7175 1413.0977,123.7175 C1414.9799,123.7175 1417.0793,123.7175 1419.3788,123.7175 C1428.5768,123.7175 1440.9759,123.7175 1455.4736,123.7175 C1484.4691,123.7175 1521.8594,123.7175 1558.8263,123.7175 C1632.76,123.7175 1705,123.7175 1705,123.7175 C1705,123.7175 1705,130.1144 1705,139.8595 C1705,144.7321 1705,150.4418 1705,156.6074 C1705,159.6902 1705,162.887 1705,166.1502 C1705,166.966 1705,167.786 1705,168.6093 C1705,169.021 1705,163.4335 1705,163.8468 " fill="#FFFFFF" fill-opacity="0.00000" id="Shareholders-to-Board" style="stroke:#808080;stroke-width:1;"/><polygon fill="#808080" points="1705,169.8468,1709,160.8468,1705,164.8468,1701,160.8468,1705,169.8468" style="stroke:#808080;stroke-width:1;"/></g><!--link Board to LT--><g id="link_Board_LT"><path d="M1705,283.8043 C1705,284.0642 1705,284.3246 1705,284.5855 C1705,285.6291 1705,286.6809 1705,287.74 C1705,296.2125 1705,305.1494 1705,314.0675 C1705,316.297 1705,318.5254 1705,320.745 C1705,321.2999 1705,321.8543 1705,322.408 C1705,322.6849 1705,316.9615 1705,317.238 " fill="#FFFFFF" fill-opacity="0.00000" id="Board-to-LT" style="stroke:#808080;stroke-width:1;"/><polygon fill="#808080" points="1705,323.238,1709,314.238,1705,318.238,1701,314.238,1705,323.238" style="stroke:#808080;stroke-width:1;"/></g><!--link TLHQ to HRL--><g id="link_TLHQ_HRL"><path d="M231.5,413.2475 C231.5,447.8075 231.5,505.8375 231.5,540.3975 " fill="#FFFFFF" fill-opacity="0.00000" id="TLHQ-to-HRL" style="stroke:#808080;stroke-width:1;"/><polygon fill="#808080" points="231.5,546.3975,235.5,537.3975,231.5,541.3975,227.5,537.3975,231.5,546.3975" style="stroke:#808080;stroke-width:1;"/></g><!--link HRL to QM--><g id="link_HRL_QM"><path d="M153,593.2875 C153,608.3175 153,621.7875 153,636.8375 " fill="#FFFFFF" fill-opacity="0.00000" id="HRL-to-QM" style="stroke:#808080;stroke-width:1;"/><polygon fill="#808080" points="153,642.8375,157,633.8375,153,637.8375,149,633.8375,153,642.8375" style="stroke:#808080;stroke-width:1;"/></g><!--link TLF to FL--><g id="link_TLF_FL"><path d="M478.5,413.2475 C478.5,447.8075 478.5,505.8375 478.5,540.3975 " fill="#FFFFFF" fill-opacity="0.00000" id="TLF-to-FL" style="stroke:#808080;stroke-width:1;"/><polygon fill="#808080" points="478.5,546.3975,482.5,537.3975,478.5,541.3975,474.5,537.3975,478.5,546.3975" style="stroke:#808080;stroke-width:1;"/></g><!--link FL to FC--><g id="link_FL_FC"><path d="M403,593.2875 C403,608.3175 403,621.7875 403,636.8375 " fill="#FFFFFF" fill-opacity="0.00000" id="FL-to-FC" style="stroke:#808080;stroke-width:1;"/><polygon fill="#808080" points="403,642.8375,407,633.8375,403,637.8375,399,633.8375,403,642.8375" style="stroke:#808080;stroke-width:1;"/></g><!--link TLO to OL--><g id="link_TLO_OL"><path d="M790.5,413.2475 C790.5,447.8075 790.5,505.8375 790.5,540.3975 " fill="#FFFFFF" fill-opacity="0.00000" id="TLO-to-OL" style="stroke:#808080;stroke-width:1;"/><polygon fill="#808080" points="790.5,546.3975,794.5,537.3975,790.5,541.3975,786.5,537.3975,790.5,546.3975" style="stroke:#808080;stroke-width:1;"/></g><!--link OL to SE--><g id="link_OL_SE"><path d="M703.08,593.2875 C703.08,608.3175 703.08,621.7875 703.08,636.8375 " fill="#FFFFFF" fill-opacity="0.00000" id="OL-to-SE" style="stroke:#808080;stroke-width:1;"/><polygon fill="#808080" points="703.08,642.8375,707.08,633.8375,703.08,637.8375,699.08,633.8375,703.08,642.8375" style="stroke:#808080;stroke-width:1;"/></g><!--link OL to CON--><g id="link_OL_CON"><path d="M827.53,593.2875 C827.53,608.3175 827.53,621.7875 827.53,636.8375 " fill="#FFFFFF" fill-opacity="0.00000" id="OL-to-CON" style="stroke:#808080;stroke-width:1;"/><polygon fill="#808080" points="827.53,642.8375,831.53,633.8375,827.53,637.8375,823.53,633.8375,827.53,642.8375" style="stroke:#808080;stroke-width:1;"/></g><!--link TLD to DL--><g id="link_TLD_DL"><path d="M1051.5,413.2475 C1051.5,447.8075 1051.5,505.8375 1051.5,540.3975 " fill="#FFFFFF" fill-opacity="0.00000" id="TLD-to-DL" style="stroke:#808080;stroke-width:1;"/><polygon fill="#808080" points="1051.5,546.3975,1055.5,537.3975,1051.5,541.3975,1047.5,537.3975,1051.5,546.3975" style="stroke:#808080;stroke-width:1;"/></g><!--link DL to PO--><g id="link_DL_PO"><path d="M1017,593.2875 C1017,608.3175 1017,621.7875 1017,636.8375 " fill="#FFFFFF" fill-opacity="0.00000" id="DL-to-PO" style="stroke:#808080;stroke-width:1;"/><polygon fill="#808080" points="1017,642.8375,1021,633.8375,1017,637.8375,1013,633.8375,1017,642.8375" style="stroke:#808080;stroke-width:1;"/></g><!--link DL to LD--><g id="link_DL_LD"><path d="M1150.02,593.2875 C1150.02,608.3175 1150.02,621.7875 1150.02,636.8375 " fill="#FFFFFF" fill-opacity="0.00000" id="DL-to-LD" style="stroke:#808080;stroke-width:1;"/><polygon fill="#808080" points="1150.02,642.8375,1154.02,633.8375,1150.02,637.8375,1146.02,633.8375,1150.02,642.8375" style="stroke:#808080;stroke-width:1;"/></g><!--link LD to DEV--><g id="link_LD_DEV"><path d="M1214,689.5875 C1214,704.6075 1214,718.0875 1214,733.1375 " fill="#FFFFFF" fill-opacity="0.00000" id="LD-to-DEV" style="stroke:#808080;stroke-width:1;"/><polygon fill="#808080" points="1214,739.1375,1218,730.1375,1214,734.1375,1210,730.1375,1214,739.1375" style="stroke:#808080;stroke-width:1;"/></g><!--link TLSM to CL--><g id="link_TLSM_CL"><path d="M1401.39,413.2475 C1401.39,447.8075 1401.39,505.8375 1401.39,540.3975 " fill="#FFFFFF" fill-opacity="0.00000" id="TLSM-to-CL" style="stroke:#808080;stroke-width:1;"/><polygon fill="#808080" points="1401.39,546.3975,1405.39,537.3975,1401.39,541.3975,1397.39,537.3975,1401.39,546.3975" style="stroke:#808080;stroke-width:1;"/></g><!--link CL to SS--><g id="link_CL_SS"><path d="M1414,593.2875 C1414,608.3175 1414,621.7875 1414,636.8375 " fill="#FFFFFF" fill-opacity="0.00000" id="CL-to-SS" style="stroke:#808080;stroke-width:1;"/><polygon fill="#808080" points="1414,642.8375,1418,633.8375,1414,637.8375,1410,633.8375,1414,642.8375" style="stroke:#808080;stroke-width:1;"/></g><!--link CL to MC--><g id="link_CL_MC"><path d="M1566.72,593.2875 C1566.72,608.3175 1566.72,621.7875 1566.72,636.8375 " fill="#FFFFFF" fill-opacity="0.00000" id="CL-to-MC" style="stroke:#808080;stroke-width:1;"/><polygon fill="#808080" points="1566.72,642.8375,1570.72,633.8375,1566.72,637.8375,1562.72,633.8375,1566.72,642.8375" style="stroke:#808080;stroke-width:1;"/></g><!--link TLRI to RDL--><g id="link_TLRI_RDL"><path d="M1627.72,412.9775 C1627.72,461.8675 1627.72,570.7175 1627.72,570.7175 C1627.72,570.7175 1734.61,570.7175 1813.11,570.7175 " fill="#FFFFFF" fill-opacity="0.00000" id="TLRI-to-RDL" style="stroke:#808080;stroke-width:1;"/><polygon fill="#808080" points="1819.11,570.7175,1810.11,566.7175,1814.11,570.7175,1810.11,574.7175,1819.11,570.7175" style="stroke:#808080;stroke-width:1;"/></g><!--link RDL to SA--><g id="link_RDL_SA"><path d="M1893,593.2875 C1893,608.3175 1893,621.7875 1893,636.8375 " fill="#FFFFFF" fill-opacity="0.00000" id="RDL-to-SA" style="stroke:#808080;stroke-width:1;"/><polygon fill="#808080" points="1893,642.8375,1897,633.8375,1893,637.8375,1889,633.8375,1893,642.8375" style="stroke:#808080;stroke-width:1;"/></g><text fill="#888888" font-family="Arial" font-size="10" lengthAdjust="spacing" textLength="70.835" x="973.5825" y="839.9997">OpenWoo.app</text><!--SRC=[ZLPDQ-Cm4BthLuW6sjEMVcnfkuS5nn-auDID7Rg7PGyYKM9JMJAot5AM_UyxbftKbboxEGGocZTwetap4vKfHd4azuHd9L4PnOcIrKPLbKGx8HILFt1KKFvBY7DI52YbP6lQKFcIyO98akCjtP6AgK1mzKXoYXsP4TOvvs9BIrhWcukEKHB-OXdBb6p5MyRtU4TOIJidBEDKlHSK2wbIWT0PJb8YQIeOC2lHJjONdtHj9_Wlml3PYBmGd7BLEyQNU7x-V7w2IOcJnIMUtTswlZyVGrnr4LTVGLnt4TT7nB-Q_bmGkJtmrZy623jiJtDAEVOoIJUALb87SpmykxyBvlTtJQnGrwTCimAlASaFKGspXePh-vRwKCV0YnYVubL5MARUjViwNApmB0YSYrldSrYGSS8tj4K4qm0GaWJT2Lwsc6WQuz5NoaIHWxa5UTEWX31QGavB8b-e0c6rq6GvZOrF7rhl-E7ehT-xzZbgJlyurEwizuHDDMfxwzj_tmRozM8iuh37sa0UBbqIJlQqKSfAv-b_dzze1B1lMBOLimWUApd1hLlnO9HLuma30Rim7wHWhAKMkCFKFhHXiUlAPeAWeR1eb6DI5GNC5UppFOmPFJlgblLx10qCP5F2q2DSDTvkz3YSJqUtLa8zJKzaPEhV6qtfIOejJ7GSlV7slP-YiNIwLxI0fhy-0nnzc_Gz_tauVQi3hKSOwD69fx0HJGd6Ywn1RQcR0YTZ2NuGTaMULppRQ3rfvF8JxSQmvuZSfC3jWNFngX5MmdgmJAHu63xnU9aJmIfzXmEtPWfsHAjTno2evrPCMTCJi19Ar5sM-DllsLwIzp_VVhQRINyVpR2LEHo5wpfCRyJ9NaozBmmGZ2rKZox3l5hMiGw3o0mJcEv1Y08hHk3MCJeJmmmJcOWeH94L9l47ZD3GTV1k-vhHFHFZXSYp0Zr50yRGGmDm_rd_ix5QnhmOrfV9DaIkdLSoO5pgDmDzML5XpHc-e3uKs-GJvpy0]--></g></svg>