<svg xmlns="http://www.w3.org/2000/svg" xmlns:xlink="http://www.w3.org/1999/xlink" contentStyleType="text/css" data-diagram-type="DESCRIPTION" height="850px" preserveAspectRatio="none" style="width:2166px;height:850px;background:#FFFFFF;" version="1.1" viewBox="0 0 2166 850" width="2166px" zoomAndPan="magnify"><title>Organisatie Structuur</title><defs/><g><text fill="#888888" font-family="Arial" font-size="10" lengthAdjust="spacing" textLength="70.835" x="2081.165" y="9.2822">OpenWoo.app</text><text fill="#000000" font-family="Arial" font-size="14" font-weight="bold" lengthAdjust="spacing" textLength="172.1563" x="989.9219" y="35.6357">Organisatie Structuur</text><!--cluster Shareholders--><g id="cluster_Shareholders"><rect fill="#FFFFFF" fill-opacity="0.00000" height="226.59" rx="2.5" ry="2.5" style="stroke:#181818;stroke-width:1;" width="475" x="1069" y="56.9375"/><path d="M1184.0342,56.9375 L1184.0342,66.2344 L1174.0342,76.2344 L1069,76.2344 " fill="#FFFFFF" fill-opacity="0.00000" style="stroke:#181818;stroke-width:1;"/><text fill="#000000" font-family="Arial" font-size="14" font-weight="bold" lengthAdjust="spacing" textLength="105.0342" x="1072" y="70.9326">Shareholders</text></g><!--cluster Board--><g id="cluster_Board"><rect fill="#FFFFFF" fill-opacity="0.00000" height="113.29" rx="2.5" ry="2.5" style="stroke:#181818;stroke-width:1;" width="263" x="1584" y="170.2375"/><path d="M1640.6621,170.2375 L1640.6621,179.5344 L1630.6621,189.5344 L1584,189.5344 " fill="#FFFFFF" fill-opacity="0.00000" style="stroke:#181818;stroke-width:1;"/><text fill="#000000" font-family="Arial" font-size="14" font-weight="bold" lengthAdjust="spacing" textLength="46.6621" x="1587" y="184.2326">Board</text></g><!--cluster LT--><g id="cluster_LT"><rect fill="#FFFFFF" fill-opacity="0.00000" height="113.3" rx="2.5" ry="2.5" style="stroke:#181818;stroke-width:1;" width="1533" x="314" y="323.5275"/><path d="M459.3584,323.5275 L459.3584,332.8244 L449.3584,342.8244 L314,342.8244 " fill="#FFFFFF" fill-opacity="0.00000" style="stroke:#181818;stroke-width:1;"/><text fill="#000000" font-family="Arial" font-size="14" font-weight="bold" lengthAdjust="spacing" textLength="135.3584" x="317" y="337.5226">Leadership Team</text></g><!--cluster Teams--><g id="cluster_Teams"><rect fill="#FFFFFF" fill-opacity="0.00000" height="356.89" rx="2.5" ry="2.5" style="stroke:#181818;stroke-width:1;" width="2153" x="7" y="468.8275"/><path d="M68.4131,468.8275 L68.4131,478.1244 L58.4131,488.1244 L7,488.1244 " fill="#FFFFFF" fill-opacity="0.00000" style="stroke:#181818;stroke-width:1;"/><text fill="#000000" font-family="Arial" font-size="14" font-weight="bold" lengthAdjust="spacing" textLength="51.4131" x="10" y="482.8226">Teams</text></g><!--cluster HR & Quality--><g id="cluster_HR &amp; Quality"><rect fill="#FFFFFF" fill-opacity="0.00000" height="193.59" rx="2.5" ry="2.5" style="stroke:#181818;stroke-width:1;" width="378" x="31" y="511.8275"/><path d="M142.1855,511.8275 L142.1855,521.1244 L132.1855,531.1244 L31,531.1244 " fill="#FFFFFF" fill-opacity="0.00000" style="stroke:#181818;stroke-width:1;"/><text fill="#000000" font-family="Arial" font-size="14" font-weight="bold" lengthAdjust="spacing" textLength="101.1855" x="34" y="525.8226">HR &amp; Quality</text></g><!--cluster Finance--><g id="cluster_Finance"><rect fill="#FFFFFF" fill-opacity="0.00000" height="193.59" rx="2.5" ry="2.5" style="stroke:#181818;stroke-width:1;" width="208" x="433" y="511.8275"/><path d="M504.5371,511.8275 L504.5371,521.1244 L494.5371,531.1244 L433,531.1244 " fill="#FFFFFF" fill-opacity="0.00000" style="stroke:#181818;stroke-width:1;"/><text fill="#000000" font-family="Arial" font-size="14" font-weight="bold" lengthAdjust="spacing" textLength="61.5371" x="436" y="525.8226">Finance</text></g><!--cluster Operations--><g id="cluster_Operations"><rect fill="#FFFFFF" fill-opacity="0.00000" height="193.59" rx="2.5" ry="2.5" style="stroke:#181818;stroke-width:1;" width="374" x="665" y="511.8275"/><path d="M762.1787,511.8275 L762.1787,521.1244 L752.1787,531.1244 L665,531.1244 " fill="#FFFFFF" fill-opacity="0.00000" style="stroke:#181818;stroke-width:1;"/><text fill="#000000" font-family="Arial" font-size="14" font-weight="bold" lengthAdjust="spacing" textLength="87.1787" x="668" y="525.8226">Operations</text></g><!--cluster Development--><g id="cluster_Development"><rect fill="#FFFFFF" fill-opacity="0.00000" height="289.89" rx="2.5" ry="2.5" style="stroke:#181818;stroke-width:1;" width="376" x="1063" y="511.8275"/><path d="M1177.918,511.8275 L1177.918,521.1244 L1167.918,531.1244 L1063,531.1244 " fill="#FFFFFF" fill-opacity="0.00000" style="stroke:#181818;stroke-width:1;"/><text fill="#000000" font-family="Arial" font-size="14" font-weight="bold" lengthAdjust="spacing" textLength="104.918" x="1066" y="525.8226">Development</text></g><!--cluster Sales & Marketing--><g id="cluster_Sales &amp; Marketing"><rect fill="#FFFFFF" fill-opacity="0.00000" height="193.59" rx="2.5" ry="2.5" style="stroke:#181818;stroke-width:1;" width="445" x="1463" y="511.8275"/><path d="M1617.6826,511.8275 L1617.6826,521.1244 L1607.6826,531.1244 L1463,531.1244 " fill="#FFFFFF" fill-opacity="0.00000" style="stroke:#181818;stroke-width:1;"/><text fill="#000000" font-family="Arial" font-size="14" font-weight="bold" lengthAdjust="spacing" textLength="144.6826" x="1466" y="525.8226">Sales &amp; Marketing</text></g><!--cluster R&I--><g id="cluster_R&amp;I"><rect fill="#FFFFFF" fill-opacity="0.00000" height="193.59" rx="2.5" ry="2.5" style="stroke:#181818;stroke-width:1;" width="204" x="1932" y="511.8275"/><path d="M1970.1982,511.8275 L1970.1982,521.1244 L1960.1982,531.1244 L1932,531.1244 " fill="#FFFFFF" fill-opacity="0.00000" style="stroke:#181818;stroke-width:1;"/><text fill="#000000" font-family="Arial" font-size="14" font-weight="bold" lengthAdjust="spacing" textLength="28.1982" x="1935" y="525.8226">R&amp;I</text></g><!--entity SH1--><g id="elem_SH1"><rect fill="#87CEEB" height="46.2969" rx="2.5" ry="2.5" style="stroke:#181818;stroke-width:0.5;" width="171.1816" x="1093.41" y="99.9375"/><rect fill="#87CEEB" height="10" style="stroke:#181818;stroke-width:0.5;" width="15" x="1244.5916" y="104.9375"/><rect fill="#87CEEB" height="2" style="stroke:#181818;stroke-width:0.5;" width="4" x="1242.5916" y="106.9375"/><rect fill="#87CEEB" height="2" style="stroke:#181818;stroke-width:0.5;" width="4" x="1242.5916" y="110.9375"/><text fill="#000000" font-family="Arial" font-size="14" lengthAdjust="spacing" textLength="131.1816" x="1108.41" y="132.9326">Shareholder 1 B.V.</text></g><!--entity SH2--><g id="elem_SH2"><rect fill="#87CEEB" height="46.2969" rx="2.5" ry="2.5" style="stroke:#181818;stroke-width:0.5;" width="171.1816" x="1314.41" y="99.9375"/><rect fill="#87CEEB" height="10" style="stroke:#181818;stroke-width:0.5;" width="15" x="1465.5916" y="104.9375"/><rect fill="#87CEEB" height="2" style="stroke:#181818;stroke-width:0.5;" width="4" x="1463.5916" y="106.9375"/><rect fill="#87CEEB" height="2" style="stroke:#181818;stroke-width:0.5;" width="4" x="1463.5916" y="110.9375"/><text fill="#000000" font-family="Arial" font-size="14" lengthAdjust="spacing" textLength="131.1816" x="1329.41" y="132.9326">Shareholder 2 B.V.</text></g><!--entity SH3--><g id="elem_SH3"><rect fill="#87CEEB" height="46.2969" rx="2.5" ry="2.5" style="stroke:#181818;stroke-width:0.5;" width="171.1816" x="1093.41" y="213.2375"/><rect fill="#87CEEB" height="10" style="stroke:#181818;stroke-width:0.5;" width="15" x="1244.5916" y="218.2375"/><rect fill="#87CEEB" height="2" style="stroke:#181818;stroke-width:0.5;" width="4" x="1242.5916" y="220.2375"/><rect fill="#87CEEB" height="2" style="stroke:#181818;stroke-width:0.5;" width="4" x="1242.5916" y="224.2375"/><text fill="#000000" font-family="Arial" font-size="14" lengthAdjust="spacing" textLength="131.1816" x="1108.41" y="246.2326">Shareholder 3 B.V.</text></g><!--entity AD--><g id="elem_AD"><rect fill="#98FB98" height="46.2969" rx="2.5" ry="2.5" style="stroke:#181818;stroke-width:0.5;" width="180.6221" x="1607.69" y="213.2375"/><rect fill="#98FB98" height="10" style="stroke:#181818;stroke-width:0.5;" width="15" x="1768.3121" y="218.2375"/><rect fill="#98FB98" height="2" style="stroke:#181818;stroke-width:0.5;" width="4" x="1766.3121" y="220.2375"/><rect fill="#98FB98" height="2" style="stroke:#181818;stroke-width:0.5;" width="4" x="1766.3121" y="224.2375"/><text fill="#000000" font-family="Arial" font-size="14" lengthAdjust="spacing" textLength="140.6221" x="1622.69" y="246.2326">Algemeen Directeur</text></g><!--entity TLHQ--><g id="elem_TLHQ"><rect fill="#FFA07A" height="46.2969" rx="2.5" ry="2.5" style="stroke:#181818;stroke-width:0.5;" width="212.2588" x="337.87" y="366.5275"/><rect fill="#FFA07A" height="10" style="stroke:#181818;stroke-width:0.5;" width="15" x="530.1288" y="371.5275"/><rect fill="#FFA07A" height="2" style="stroke:#181818;stroke-width:0.5;" width="4" x="528.1288" y="373.5275"/><rect fill="#FFA07A" height="2" style="stroke:#181818;stroke-width:0.5;" width="4" x="528.1288" y="377.5275"/><text fill="#000000" font-family="Arial" font-size="14" lengthAdjust="spacing" textLength="172.2588" x="352.87" y="399.5226">Team Lead HR &amp; Quality</text></g><!--entity TLF--><g id="elem_TLF"><rect fill="#FFA07A" height="46.2969" rx="2.5" ry="2.5" style="stroke:#181818;stroke-width:0.5;" width="176.7393" x="599.63" y="366.5275"/><rect fill="#FFA07A" height="10" style="stroke:#181818;stroke-width:0.5;" width="15" x="756.3693" y="371.5275"/><rect fill="#FFA07A" height="2" style="stroke:#181818;stroke-width:0.5;" width="4" x="754.3693" y="373.5275"/><rect fill="#FFA07A" height="2" style="stroke:#181818;stroke-width:0.5;" width="4" x="754.3693" y="377.5275"/><text fill="#000000" font-family="Arial" font-size="14" lengthAdjust="spacing" textLength="136.7393" x="614.63" y="399.5226">Team Lead Finance</text></g><!--entity TLO--><g id="elem_TLO"><rect fill="#FFA07A" height="46.2969" rx="2.5" ry="2.5" style="stroke:#181818;stroke-width:0.5;" width="199.127" x="826.44" y="366.5275"/><rect fill="#FFA07A" height="10" style="stroke:#181818;stroke-width:0.5;" width="15" x="1005.567" y="371.5275"/><rect fill="#FFA07A" height="2" style="stroke:#181818;stroke-width:0.5;" width="4" x="1003.567" y="373.5275"/><rect fill="#FFA07A" height="2" style="stroke:#181818;stroke-width:0.5;" width="4" x="1003.567" y="377.5275"/><text fill="#000000" font-family="Arial" font-size="14" lengthAdjust="spacing" textLength="159.127" x="841.44" y="399.5226">Team Lead Operations</text></g><!--entity TLD--><g id="elem_TLD"><rect fill="#FFA07A" height="46.2969" rx="2.5" ry="2.5" style="stroke:#181818;stroke-width:0.5;" width="216.4082" x="1075.8" y="366.5275"/><rect fill="#FFA07A" height="10" style="stroke:#181818;stroke-width:0.5;" width="15" x="1272.2082" y="371.5275"/><rect fill="#FFA07A" height="2" style="stroke:#181818;stroke-width:0.5;" width="4" x="1270.2082" y="373.5275"/><rect fill="#FFA07A" height="2" style="stroke:#181818;stroke-width:0.5;" width="4" x="1270.2082" y="377.5275"/><text fill="#000000" font-family="Arial" font-size="14" lengthAdjust="spacing" textLength="176.4082" x="1090.8" y="399.5226">Team Lead Development</text></g><!--entity TLSM--><g id="elem_TLSM"><rect fill="#FFA07A" height="46.2969" rx="2.5" ry="2.5" style="stroke:#181818;stroke-width:0.5;" width="249.5146" x="1342.24" y="366.5275"/><rect fill="#FFA07A" height="10" style="stroke:#181818;stroke-width:0.5;" width="15" x="1571.7546" y="371.5275"/><rect fill="#FFA07A" height="2" style="stroke:#181818;stroke-width:0.5;" width="4" x="1569.7546" y="373.5275"/><rect fill="#FFA07A" height="2" style="stroke:#181818;stroke-width:0.5;" width="4" x="1569.7546" y="377.5275"/><text fill="#000000" font-family="Arial" font-size="14" lengthAdjust="spacing" textLength="209.5146" x="1357.24" y="399.5226">Team Lead Sales &amp; Marketing</text></g><!--entity TLRI--><g id="elem_TLRI"><rect fill="#FFA07A" height="46.2969" rx="2.5" ry="2.5" style="stroke:#181818;stroke-width:0.5;" width="146.9346" x="1641.53" y="366.5275"/><rect fill="#FFA07A" height="10" style="stroke:#181818;stroke-width:0.5;" width="15" x="1768.4646" y="371.5275"/><rect fill="#FFA07A" height="2" style="stroke:#181818;stroke-width:0.5;" width="4" x="1766.4646" y="373.5275"/><rect fill="#FFA07A" height="2" style="stroke:#181818;stroke-width:0.5;" width="4" x="1766.4646" y="377.5275"/><text fill="#000000" font-family="Arial" font-size="14" lengthAdjust="spacing" textLength="106.9346" x="1656.53" y="399.5226">Team Lead R&amp;I</text></g><!--entity HRL--><g id="elem_HRL"><rect fill="#FFA07A" height="46.2969" rx="2.5" ry="2.5" style="stroke:#181818;stroke-width:0.5;" width="212.2588" x="180.87" y="546.8275"/><rect fill="#FFA07A" height="10" style="stroke:#181818;stroke-width:0.5;" width="15" x="373.1288" y="551.8275"/><rect fill="#FFA07A" height="2" style="stroke:#181818;stroke-width:0.5;" width="4" x="371.1288" y="553.8275"/><rect fill="#FFA07A" height="2" style="stroke:#181818;stroke-width:0.5;" width="4" x="371.1288" y="557.8275"/><text fill="#000000" font-family="Arial" font-size="14" lengthAdjust="spacing" textLength="172.2588" x="195.87" y="579.8226">Team Lead HR &amp; Quality</text></g><!--entity QM--><g id="elem_QM"><rect fill="#FFE4B5" height="46.2969" rx="2.5" ry="2.5" style="stroke:#181818;stroke-width:0.5;" width="155.8418" x="47.08" y="643.1275"/><rect fill="#FFE4B5" height="10" style="stroke:#181818;stroke-width:0.5;" width="15" x="182.9218" y="648.1275"/><rect fill="#FFE4B5" height="2" style="stroke:#181818;stroke-width:0.5;" width="4" x="180.9218" y="650.1275"/><rect fill="#FFE4B5" height="2" style="stroke:#181818;stroke-width:0.5;" width="4" x="180.9218" y="654.1275"/><text fill="#000000" font-family="Arial" font-size="14" lengthAdjust="spacing" textLength="115.8418" x="62.08" y="676.1226">Quality Manager</text></g><!--entity OS--><g id="elem_OS"><rect fill="#FFE4B5" height="46.2969" rx="2.5" ry="2.5" style="stroke:#181818;stroke-width:0.5;" width="140.8711" x="252.56" y="643.1275"/><rect fill="#FFE4B5" height="10" style="stroke:#181818;stroke-width:0.5;" width="15" x="373.4311" y="648.1275"/><rect fill="#FFE4B5" height="2" style="stroke:#181818;stroke-width:0.5;" width="4" x="371.4311" y="650.1275"/><rect fill="#FFE4B5" height="2" style="stroke:#181818;stroke-width:0.5;" width="4" x="371.4311" y="654.1275"/><text fill="#000000" font-family="Arial" font-size="14" lengthAdjust="spacing" textLength="100.8711" x="267.56" y="676.1226">Office Support</text></g><!--entity FL--><g id="elem_FL"><rect fill="#FFA07A" height="46.2969" rx="2.5" ry="2.5" style="stroke:#181818;stroke-width:0.5;" width="176.7393" x="448.63" y="546.8275"/><rect fill="#FFA07A" height="10" style="stroke:#181818;stroke-width:0.5;" width="15" x="605.3693" y="551.8275"/><rect fill="#FFA07A" height="2" style="stroke:#181818;stroke-width:0.5;" width="4" x="603.3693" y="553.8275"/><rect fill="#FFA07A" height="2" style="stroke:#181818;stroke-width:0.5;" width="4" x="603.3693" y="557.8275"/><text fill="#000000" font-family="Arial" font-size="14" lengthAdjust="spacing" textLength="136.7393" x="463.63" y="579.8226">Team Lead Finance</text></g><!--entity FC--><g id="elem_FC"><rect fill="#FFE4B5" height="46.2969" rx="2.5" ry="2.5" style="stroke:#181818;stroke-width:0.5;" width="175.9463" x="449.03" y="643.1275"/><rect fill="#FFE4B5" height="10" style="stroke:#181818;stroke-width:0.5;" width="15" x="604.9763" y="648.1275"/><rect fill="#FFE4B5" height="2" style="stroke:#181818;stroke-width:0.5;" width="4" x="602.9763" y="650.1275"/><rect fill="#FFE4B5" height="2" style="stroke:#181818;stroke-width:0.5;" width="4" x="602.9763" y="654.1275"/><text fill="#000000" font-family="Arial" font-size="14" lengthAdjust="spacing" textLength="135.9463" x="464.03" y="676.1226">Financial Controller</text></g><!--entity OL--><g id="elem_OL"><rect fill="#FFA07A" height="46.2969" rx="2.5" ry="2.5" style="stroke:#181818;stroke-width:0.5;" width="199.127" x="823.44" y="546.8275"/><rect fill="#FFA07A" height="10" style="stroke:#181818;stroke-width:0.5;" width="15" x="1002.567" y="551.8275"/><rect fill="#FFA07A" height="2" style="stroke:#181818;stroke-width:0.5;" width="4" x="1000.567" y="553.8275"/><rect fill="#FFA07A" height="2" style="stroke:#181818;stroke-width:0.5;" width="4" x="1000.567" y="557.8275"/><text fill="#000000" font-family="Arial" font-size="14" lengthAdjust="spacing" textLength="159.127" x="838.44" y="579.8226">Team Lead Operations</text></g><!--entity SE--><g id="elem_SE"><rect fill="#FFE4B5" height="46.2969" rx="2.5" ry="2.5" style="stroke:#181818;stroke-width:0.5;" width="169.4385" x="681.28" y="643.1275"/><rect fill="#FFE4B5" height="10" style="stroke:#181818;stroke-width:0.5;" width="15" x="830.7185" y="648.1275"/><rect fill="#FFE4B5" height="2" style="stroke:#181818;stroke-width:0.5;" width="4" x="828.7185" y="650.1275"/><rect fill="#FFE4B5" height="2" style="stroke:#181818;stroke-width:0.5;" width="4" x="828.7185" y="654.1275"/><text fill="#000000" font-family="Arial" font-size="14" lengthAdjust="spacing" textLength="129.4385" x="696.28" y="676.1226">Support Engineers</text></g><!--entity CON--><g id="elem_CON"><rect fill="#FFE4B5" height="46.2969" rx="2.5" ry="2.5" style="stroke:#181818;stroke-width:0.5;" width="122.9951" x="900.5" y="643.1275"/><rect fill="#FFE4B5" height="10" style="stroke:#181818;stroke-width:0.5;" width="15" x="1003.4951" y="648.1275"/><rect fill="#FFE4B5" height="2" style="stroke:#181818;stroke-width:0.5;" width="4" x="1001.4951" y="650.1275"/><rect fill="#FFE4B5" height="2" style="stroke:#181818;stroke-width:0.5;" width="4" x="1001.4951" y="654.1275"/><text fill="#000000" font-family="Arial" font-size="14" lengthAdjust="spacing" textLength="82.9951" x="915.5" y="676.1226">Consultants</text></g><!--entity DL--><g id="elem_DL"><rect fill="#FFA07A" height="46.2969" rx="2.5" ry="2.5" style="stroke:#181818;stroke-width:0.5;" width="216.4082" x="1078.8" y="546.8275"/><rect fill="#FFA07A" height="10" style="stroke:#181818;stroke-width:0.5;" width="15" x="1275.2082" y="551.8275"/><rect fill="#FFA07A" height="2" style="stroke:#181818;stroke-width:0.5;" width="4" x="1273.2082" y="553.8275"/><rect fill="#FFA07A" height="2" style="stroke:#181818;stroke-width:0.5;" width="4" x="1273.2082" y="557.8275"/><text fill="#000000" font-family="Arial" font-size="14" lengthAdjust="spacing" textLength="176.4082" x="1093.8" y="579.8226">Team Lead Development</text></g><!--entity PO--><g id="elem_PO"><rect fill="#FFE4B5" height="46.2969" rx="2.5" ry="2.5" style="stroke:#181818;stroke-width:0.5;" width="143.8721" x="1079.06" y="643.1275"/><rect fill="#FFE4B5" height="10" style="stroke:#181818;stroke-width:0.5;" width="15" x="1202.9321" y="648.1275"/><rect fill="#FFE4B5" height="2" style="stroke:#181818;stroke-width:0.5;" width="4" x="1200.9321" y="650.1275"/><rect fill="#FFE4B5" height="2" style="stroke:#181818;stroke-width:0.5;" width="4" x="1200.9321" y="654.1275"/><text fill="#000000" font-family="Arial" font-size="14" lengthAdjust="spacing" textLength="103.8721" x="1094.06" y="676.1226">Product Owner</text></g><!--entity LD--><g id="elem_LD"><rect fill="#FFE4B5" height="46.2969" rx="2.5" ry="2.5" style="stroke:#181818;stroke-width:0.5;" width="150.332" x="1272.83" y="643.1275"/><rect fill="#FFE4B5" height="10" style="stroke:#181818;stroke-width:0.5;" width="15" x="1403.162" y="648.1275"/><rect fill="#FFE4B5" height="2" style="stroke:#181818;stroke-width:0.5;" width="4" x="1401.162" y="650.1275"/><rect fill="#FFE4B5" height="2" style="stroke:#181818;stroke-width:0.5;" width="4" x="1401.162" y="654.1275"/><text fill="#000000" font-family="Arial" font-size="14" lengthAdjust="spacing" textLength="110.332" x="1287.83" y="676.1226">Lead Developer</text></g><!--entity DEV--><g id="elem_DEV"><rect fill="#FFE4B5" height="46.2969" rx="2.5" ry="2.5" style="stroke:#181818;stroke-width:0.5;" width="119.2969" x="1288.35" y="739.4175"/><rect fill="#FFE4B5" height="10" style="stroke:#181818;stroke-width:0.5;" width="15" x="1387.6469" y="744.4175"/><rect fill="#FFE4B5" height="2" style="stroke:#181818;stroke-width:0.5;" width="4" x="1385.6469" y="746.4175"/><rect fill="#FFE4B5" height="2" style="stroke:#181818;stroke-width:0.5;" width="4" x="1385.6469" y="750.4175"/><text fill="#000000" font-family="Arial" font-size="14" lengthAdjust="spacing" textLength="79.2969" x="1303.35" y="772.4126">Developers</text></g><!--entity CL--><g id="elem_CL"><rect fill="#FFA07A" height="46.2969" rx="2.5" ry="2.5" style="stroke:#181818;stroke-width:0.5;" width="255.9541" x="1479.02" y="546.8275"/><rect fill="#FFA07A" height="10" style="stroke:#181818;stroke-width:0.5;" width="15" x="1714.9741" y="551.8275"/><rect fill="#FFA07A" height="2" style="stroke:#181818;stroke-width:0.5;" width="4" x="1712.9741" y="553.8275"/><rect fill="#FFA07A" height="2" style="stroke:#181818;stroke-width:0.5;" width="4" x="1712.9741" y="557.8275"/><text fill="#000000" font-family="Arial" font-size="14" lengthAdjust="spacing" textLength="215.9541" x="1494.02" y="579.8226">Team Lead Sales &amp; Marketing"</text></g><!--entity SS--><g id="elem_SS"><rect fill="#FFE4B5" height="46.2969" rx="2.5" ry="2.5" style="stroke:#181818;stroke-width:0.5;" width="137.0566" x="1479.47" y="643.1275"/><rect fill="#FFE4B5" height="10" style="stroke:#181818;stroke-width:0.5;" width="15" x="1596.5266" y="648.1275"/><rect fill="#FFE4B5" height="2" style="stroke:#181818;stroke-width:0.5;" width="4" x="1594.5266" y="650.1275"/><rect fill="#FFE4B5" height="2" style="stroke:#181818;stroke-width:0.5;" width="4" x="1594.5266" y="654.1275"/><text fill="#000000" font-family="Arial" font-size="14" lengthAdjust="spacing" textLength="97.0566" x="1494.47" y="676.1226">Sales Support</text></g><!--entity MC--><g id="elem_MC"><rect fill="#FFE4B5" height="46.2969" rx="2.5" ry="2.5" style="stroke:#181818;stroke-width:0.5;" width="225.0693" x="1666.47" y="643.1275"/><rect fill="#FFE4B5" height="10" style="stroke:#181818;stroke-width:0.5;" width="15" x="1871.5393" y="648.1275"/><rect fill="#FFE4B5" height="2" style="stroke:#181818;stroke-width:0.5;" width="4" x="1869.5393" y="650.1275"/><rect fill="#FFE4B5" height="2" style="stroke:#181818;stroke-width:0.5;" width="4" x="1869.5393" y="654.1275"/><text fill="#000000" font-family="Arial" font-size="14" lengthAdjust="spacing" textLength="185.0693" x="1681.47" y="676.1226">Marketing Communication</text></g><!--entity RDL--><g id="elem_RDL"><rect fill="#FFA07A" height="46.2969" rx="2.5" ry="2.5" style="stroke:#181818;stroke-width:0.5;" width="146.9346" x="1953.53" y="546.8275"/><rect fill="#FFA07A" height="10" style="stroke:#181818;stroke-width:0.5;" width="15" x="2080.4646" y="551.8275"/><rect fill="#FFA07A" height="2" style="stroke:#181818;stroke-width:0.5;" width="4" x="2078.4646" y="553.8275"/><rect fill="#FFA07A" height="2" style="stroke:#181818;stroke-width:0.5;" width="4" x="2078.4646" y="557.8275"/><text fill="#000000" font-family="Arial" font-size="14" lengthAdjust="spacing" textLength="106.9346" x="1968.53" y="579.8226">Team Lead R&amp;I</text></g><!--entity SA--><g id="elem_SA"><rect fill="#FFE4B5" height="46.2969" rx="2.5" ry="2.5" style="stroke:#181818;stroke-width:0.5;" width="171.8584" x="1948.07" y="643.1275"/><rect fill="#FFE4B5" height="10" style="stroke:#181818;stroke-width:0.5;" width="15" x="2099.9284" y="648.1275"/><rect fill="#FFE4B5" height="2" style="stroke:#181818;stroke-width:0.5;" width="4" x="2097.9284" y="650.1275"/><rect fill="#FFE4B5" height="2" style="stroke:#181818;stroke-width:0.5;" width="4" x="2097.9284" y="654.1275"/><text fill="#000000" font-family="Arial" font-size="14" lengthAdjust="spacing" textLength="131.8584" x="1963.07" y="676.1226">Solution Architects</text></g><!--link Shareholders to Board--><g id="link_Shareholders_Board"><path d="M1544.4396,123.7175 C1545.2699,123.7175 1546.1566,123.7175 1547.0977,123.7175 C1548.9799,123.7175 1551.0793,123.7175 1553.3788,123.7175 C1562.5768,123.7175 1574.9759,123.7175 1589.4736,123.7175 C1618.4691,123.7175 1655.8594,123.7175 1692.8263,123.7175 C1766.76,123.7175 1839,123.7175 1839,123.7175 C1839,123.7175 1839,130.1144 1839,139.8595 C1839,144.7321 1839,150.4418 1839,156.6074 C1839,159.6902 1839,162.887 1839,166.1502 C1839,166.966 1839,167.786 1839,168.6093 C1839,169.021 1839,163.4335 1839,163.8468 " fill="#FFFFFF" fill-opacity="0.00000" id="Shareholders-to-Board" style="stroke:#808080;stroke-width:1;"/><polygon fill="#808080" points="1839,169.8468,1843,160.8468,1839,164.8468,1835,160.8468,1839,169.8468" style="stroke:#808080;stroke-width:1;"/></g><!--link Board to LT--><g id="link_Board_LT"><path d="M1839,283.8043 C1839,284.0642 1839,284.3246 1839,284.5855 C1839,285.6291 1839,286.6809 1839,287.74 C1839,296.2125 1839,305.1494 1839,314.0675 C1839,316.297 1839,318.5254 1839,320.745 C1839,321.2999 1839,321.8543 1839,322.408 C1839,322.6849 1839,316.9615 1839,317.238 " fill="#FFFFFF" fill-opacity="0.00000" id="Board-to-LT" style="stroke:#808080;stroke-width:1;"/><polygon fill="#808080" points="1839,323.238,1843,314.238,1839,318.238,1835,314.238,1839,323.238" style="stroke:#808080;stroke-width:1;"/></g><!--link TLHQ to HRL--><g id="link_TLHQ_HRL"><path d="M365.5,413.2475 C365.5,447.8075 365.5,505.8375 365.5,540.3975 " fill="#FFFFFF" fill-opacity="0.00000" id="TLHQ-to-HRL" style="stroke:#808080;stroke-width:1;"/><polygon fill="#808080" points="365.5,546.3975,369.5,537.3975,365.5,541.3975,361.5,537.3975,365.5,546.3975" style="stroke:#808080;stroke-width:1;"/></g><!--link HRL to QM--><g id="link_HRL_QM"><path d="M191.9,593.2875 C191.9,608.3175 191.9,621.7875 191.9,636.8375 " fill="#FFFFFF" fill-opacity="0.00000" id="HRL-to-QM" style="stroke:#808080;stroke-width:1;"/><polygon fill="#808080" points="191.9,642.8375,195.9,633.8375,191.9,637.8375,187.9,633.8375,191.9,642.8375" style="stroke:#808080;stroke-width:1;"/></g><!--link HRL to OS--><g id="link_HRL_OS"><path d="M322.85,593.2875 C322.85,608.3175 322.85,621.7875 322.85,636.8375 " fill="#FFFFFF" fill-opacity="0.00000" id="HRL-to-OS" style="stroke:#808080;stroke-width:1;"/><polygon fill="#808080" points="322.85,642.8375,326.85,633.8375,322.85,637.8375,318.85,633.8375,322.85,642.8375" style="stroke:#808080;stroke-width:1;"/></g><!--link TLF to FL--><g id="link_TLF_FL"><path d="M612.5,413.2475 C612.5,447.8075 612.5,505.8375 612.5,540.3975 " fill="#FFFFFF" fill-opacity="0.00000" id="TLF-to-FL" style="stroke:#808080;stroke-width:1;"/><polygon fill="#808080" points="612.5,546.3975,616.5,537.3975,612.5,541.3975,608.5,537.3975,612.5,546.3975" style="stroke:#808080;stroke-width:1;"/></g><!--link FL to FC--><g id="link_FL_FC"><path d="M537,593.2875 C537,608.3175 537,621.7875 537,636.8375 " fill="#FFFFFF" fill-opacity="0.00000" id="FL-to-FC" style="stroke:#808080;stroke-width:1;"/><polygon fill="#808080" points="537,642.8375,541,633.8375,537,637.8375,533,633.8375,537,642.8375" style="stroke:#808080;stroke-width:1;"/></g><!--link TLO to OL--><g id="link_TLO_OL"><path d="M924.5,413.2475 C924.5,447.8075 924.5,505.8375 924.5,540.3975 " fill="#FFFFFF" fill-opacity="0.00000" id="TLO-to-OL" style="stroke:#808080;stroke-width:1;"/><polygon fill="#808080" points="924.5,546.3975,928.5,537.3975,924.5,541.3975,920.5,537.3975,924.5,546.3975" style="stroke:#808080;stroke-width:1;"/></g><!--link OL to SE--><g id="link_OL_SE"><path d="M837.08,593.2875 C837.08,608.3175 837.08,621.7875 837.08,636.8375 " fill="#FFFFFF" fill-opacity="0.00000" id="OL-to-SE" style="stroke:#808080;stroke-width:1;"/><polygon fill="#808080" points="837.08,642.8375,841.08,633.8375,837.08,637.8375,833.08,633.8375,837.08,642.8375" style="stroke:#808080;stroke-width:1;"/></g><!--link OL to CON--><g id="link_OL_CON"><path d="M961.53,593.2875 C961.53,608.3175 961.53,621.7875 961.53,636.8375 " fill="#FFFFFF" fill-opacity="0.00000" id="OL-to-CON" style="stroke:#808080;stroke-width:1;"/><polygon fill="#808080" points="961.53,642.8375,965.53,633.8375,961.53,637.8375,957.53,633.8375,961.53,642.8375" style="stroke:#808080;stroke-width:1;"/></g><!--link TLD to DL--><g id="link_TLD_DL"><path d="M1185.5,413.2475 C1185.5,447.8075 1185.5,505.8375 1185.5,540.3975 " fill="#FFFFFF" fill-opacity="0.00000" id="TLD-to-DL" style="stroke:#808080;stroke-width:1;"/><polygon fill="#808080" points="1185.5,546.3975,1189.5,537.3975,1185.5,541.3975,1181.5,537.3975,1185.5,546.3975" style="stroke:#808080;stroke-width:1;"/></g><!--link DL to PO--><g id="link_DL_PO"><path d="M1151,593.2875 C1151,608.3175 1151,621.7875 1151,636.8375 " fill="#FFFFFF" fill-opacity="0.00000" id="DL-to-PO" style="stroke:#808080;stroke-width:1;"/><polygon fill="#808080" points="1151,642.8375,1155,633.8375,1151,637.8375,1147,633.8375,1151,642.8375" style="stroke:#808080;stroke-width:1;"/></g><!--link DL to LD--><g id="link_DL_LD"><path d="M1284.02,593.2875 C1284.02,608.3175 1284.02,621.7875 1284.02,636.8375 " fill="#FFFFFF" fill-opacity="0.00000" id="DL-to-LD" style="stroke:#808080;stroke-width:1;"/><polygon fill="#808080" points="1284.02,642.8375,1288.02,633.8375,1284.02,637.8375,1280.02,633.8375,1284.02,642.8375" style="stroke:#808080;stroke-width:1;"/></g><!--link LD to DEV--><g id="link_LD_DEV"><path d="M1348,689.5875 C1348,704.6075 1348,718.0875 1348,733.1375 " fill="#FFFFFF" fill-opacity="0.00000" id="LD-to-DEV" style="stroke:#808080;stroke-width:1;"/><polygon fill="#808080" points="1348,739.1375,1352,730.1375,1348,734.1375,1344,730.1375,1348,739.1375" style="stroke:#808080;stroke-width:1;"/></g><!--link TLSM to CL--><g id="link_TLSM_CL"><path d="M1535.39,413.2475 C1535.39,447.8075 1535.39,505.8375 1535.39,540.3975 " fill="#FFFFFF" fill-opacity="0.00000" id="TLSM-to-CL" style="stroke:#808080;stroke-width:1;"/><polygon fill="#808080" points="1535.39,546.3975,1539.39,537.3975,1535.39,541.3975,1531.39,537.3975,1535.39,546.3975" style="stroke:#808080;stroke-width:1;"/></g><!--link CL to SS--><g id="link_CL_SS"><path d="M1548,593.2875 C1548,608.3175 1548,621.7875 1548,636.8375 " fill="#FFFFFF" fill-opacity="0.00000" id="CL-to-SS" style="stroke:#808080;stroke-width:1;"/><polygon fill="#808080" points="1548,642.8375,1552,633.8375,1548,637.8375,1544,633.8375,1548,642.8375" style="stroke:#808080;stroke-width:1;"/></g><!--link CL to MC--><g id="link_CL_MC"><path d="M1700.72,593.2875 C1700.72,608.3175 1700.72,621.7875 1700.72,636.8375 " fill="#FFFFFF" fill-opacity="0.00000" id="CL-to-MC" style="stroke:#808080;stroke-width:1;"/><polygon fill="#808080" points="1700.72,642.8375,1704.72,633.8375,1700.72,637.8375,1696.72,633.8375,1700.72,642.8375" style="stroke:#808080;stroke-width:1;"/></g><!--link TLRI to RDL--><g id="link_TLRI_RDL"><path d="M1761.72,412.9775 C1761.72,461.8675 1761.72,570.7175 1761.72,570.7175 C1761.72,570.7175 1868.61,570.7175 1947.11,570.7175 " fill="#FFFFFF" fill-opacity="0.00000" id="TLRI-to-RDL" style="stroke:#808080;stroke-width:1;"/><polygon fill="#808080" points="1953.11,570.7175,1944.11,566.7175,1948.11,570.7175,1944.11,574.7175,1953.11,570.7175" style="stroke:#808080;stroke-width:1;"/></g><!--link RDL to SA--><g id="link_RDL_SA"><path d="M2027,593.2875 C2027,608.3175 2027,621.7875 2027,636.8375 " fill="#FFFFFF" fill-opacity="0.00000" id="RDL-to-SA" style="stroke:#808080;stroke-width:1;"/><polygon fill="#808080" points="2027,642.8375,2031,633.8375,2027,637.8375,2023,633.8375,2027,642.8375" style="stroke:#808080;stroke-width:1;"/></g><text fill="#888888" font-family="Arial" font-size="10" lengthAdjust="spacing" textLength="70.835" x="1040.5825" y="839.9997">OpenWoo.app</text><!--SRC=[ZLPBRwCm4BxxLrYDr9wswcEhjdjOYV1GAf7IGDGzhFPW4IT1DJOofbMrsl- -Wo4fs1IQGwICvvkPRvvHcM8KHt97U5OIbL6SA5cbggeasWgXgFo1euBoNqASaw90UqesfWoLBnalY2Gvtj0jgPWA15UF9AVOaHbXdNSkDhIa1Rwvw0WbuI-MiDoJZNZB-0vl2IjfvuLbdAhtWc8XrLuWT8QJFP5qBnX4LgAjh1sVT6Kd-2_2y4b5NWXEkUezuqiyFty-Fy6anCdY4i_kRbtVduyXhhg8gwyWhhk8woFYNnt-N12vESIjVmm4xB0TpIdbsCiaJHMjf3RcU7XsVnVCx-yQMw6kJxdF2hoc93zODSGQ6gvjB_MZje4NCJx5gugmJBrhzNMuME5P43WNjyxdi23ZXAUqHGJJ06Wa2NqdUDbYeccCHryf4qKEuXRaJOCImcW9d9P4lb05ZTL2a-KqDZvzQBNZXwEspdUjS-mv_UDGkxDU2fjgrF9Mjv_V1lBrOYpYi1UrWJmuNH9EThJfb9NcwN-VtmmXekqsIs7ugwA0iTA0AEa1W6v3gosnnUXO-WaotHO9Hcaqch11i0iBHGh6MYw1EnpQHpDPqNNxR290eoMZqHZRZ66Vxs0lwMLJpxW_bcnWKyAM95mrscxqECodq-WMeTuGJ30o1yORfVGanGPE08xUU9llfsYCJjT52sW6yZF0KRUXx_dFm_IjaRMIC33K4wcm4Kq9nekiGTtXI98nWXy1koBFAvwbkfyqSlb9xyPm68bCzn3R0-VYLICimdeJJL0yRAjulCo9O9NsuO3NJC5HQNlNCGBKYowch9a9k24bwbvN_EttR2V9-vzlFzjJfh-FOZZZ79x2TMscjnDbpwO-C0O8zXogTvqXNYs7f562FhQJQJimjOCG1PQ9mAs3xAmHqqnaEGrHP9b9_04XJ7bjl3lJfdNFn7WXyYn3Jz60CFJG0Dn_rl-Fh3ao7SCHDACDaMlpIWQ4IvqpQ3hBAXnBGnTQ4iLsy8dp7m00]--></g></svg>