<svg xmlns="http://www.w3.org/2000/svg" xmlns:xlink="http://www.w3.org/1999/xlink" contentStyleType="text/css" data-diagram-type="DESCRIPTION" height="850px" preserveAspectRatio="none" style="width:1976px;height:850px;background:#FFFFFF;" version="1.1" viewBox="0 0 1976 850" width="1976px" zoomAndPan="magnify"><title>Organisatie Structuur</title><defs/><g><text fill="#888888" font-family="Arial" font-size="10" lengthAdjust="spacing" textLength="70.835" x="1891.165" y="9.2822">OpenWoo.app</text><text fill="#000000" font-family="Arial" font-size="14" font-weight="bold" lengthAdjust="spacing" textLength="172.1563" x="894.9219" y="35.6357">Organisatie Structuur</text><!--cluster Shareholders--><g id="cluster_Shareholders"><rect fill="#FFFFFF" fill-opacity="0.00000" height="226.59" rx="2.5" ry="2.5" style="stroke:#181818;stroke-width:1;" width="475" x="879" y="56.9375"/><path d="M994.0342,56.9375 L994.0342,66.2344 L984.0342,76.2344 L879,76.2344 " fill="#FFFFFF" fill-opacity="0.00000" style="stroke:#181818;stroke-width:1;"/><text fill="#000000" font-family="Arial" font-size="14" font-weight="bold" lengthAdjust="spacing" textLength="105.0342" x="882" y="70.9326">Shareholders</text></g><!--cluster Board--><g id="cluster_Board"><rect fill="#FFFFFF" fill-opacity="0.00000" height="113.29" rx="2.5" ry="2.5" style="stroke:#181818;stroke-width:1;" width="263" x="1394" y="170.2375"/><path d="M1450.6621,170.2375 L1450.6621,179.5344 L1440.6621,189.5344 L1394,189.5344 " fill="#FFFFFF" fill-opacity="0.00000" style="stroke:#181818;stroke-width:1;"/><text fill="#000000" font-family="Arial" font-size="14" font-weight="bold" lengthAdjust="spacing" textLength="46.6621" x="1397" y="184.2326">Board</text></g><!--cluster LT--><g id="cluster_LT"><rect fill="#FFFFFF" fill-opacity="0.00000" height="113.3" rx="2.5" ry="2.5" style="stroke:#181818;stroke-width:1;" width="1533" x="124" y="323.5275"/><path d="M269.3584,323.5275 L269.3584,332.8244 L259.3584,342.8244 L124,342.8244 " fill="#FFFFFF" fill-opacity="0.00000" style="stroke:#181818;stroke-width:1;"/><text fill="#000000" font-family="Arial" font-size="14" font-weight="bold" lengthAdjust="spacing" textLength="135.3584" x="127" y="337.5226">Leadership Team</text></g><!--cluster Teams--><g id="cluster_Teams"><rect fill="#FFFFFF" fill-opacity="0.00000" height="356.89" rx="2.5" ry="2.5" style="stroke:#181818;stroke-width:1;" width="1963" x="7" y="468.8275"/><path d="M68.4131,468.8275 L68.4131,478.1244 L58.4131,488.1244 L7,488.1244 " fill="#FFFFFF" fill-opacity="0.00000" style="stroke:#181818;stroke-width:1;"/><text fill="#000000" font-family="Arial" font-size="14" font-weight="bold" lengthAdjust="spacing" textLength="51.4131" x="10" y="482.8226">Teams</text></g><!--cluster HR & Quality--><g id="cluster_HR &amp; Quality"><rect fill="#FFFFFF" fill-opacity="0.00000" height="193.59" rx="2.5" ry="2.5" style="stroke:#181818;stroke-width:1;" width="188" x="31" y="511.8275"/><path d="M142.1855,511.8275 L142.1855,521.1244 L132.1855,531.1244 L31,531.1244 " fill="#FFFFFF" fill-opacity="0.00000" style="stroke:#181818;stroke-width:1;"/><text fill="#000000" font-family="Arial" font-size="14" font-weight="bold" lengthAdjust="spacing" textLength="101.1855" x="34" y="525.8226">HR &amp; Quality</text></g><!--cluster Finance--><g id="cluster_Finance"><rect fill="#FFFFFF" fill-opacity="0.00000" height="193.59" rx="2.5" ry="2.5" style="stroke:#181818;stroke-width:1;" width="208" x="243" y="511.8275"/><path d="M314.5371,511.8275 L314.5371,521.1244 L304.5371,531.1244 L243,531.1244 " fill="#FFFFFF" fill-opacity="0.00000" style="stroke:#181818;stroke-width:1;"/><text fill="#000000" font-family="Arial" font-size="14" font-weight="bold" lengthAdjust="spacing" textLength="61.5371" x="246" y="525.8226">Finance</text></g><!--cluster Operations--><g id="cluster_Operations"><rect fill="#FFFFFF" fill-opacity="0.00000" height="193.59" rx="2.5" ry="2.5" style="stroke:#181818;stroke-width:1;" width="374" x="475" y="511.8275"/><path d="M572.1787,511.8275 L572.1787,521.1244 L562.1787,531.1244 L475,531.1244 " fill="#FFFFFF" fill-opacity="0.00000" style="stroke:#181818;stroke-width:1;"/><text fill="#000000" font-family="Arial" font-size="14" font-weight="bold" lengthAdjust="spacing" textLength="87.1787" x="478" y="525.8226">Operations</text></g><!--cluster Development--><g id="cluster_Development"><rect fill="#FFFFFF" fill-opacity="0.00000" height="289.89" rx="2.5" ry="2.5" style="stroke:#181818;stroke-width:1;" width="376" x="873" y="511.8275"/><path d="M987.918,511.8275 L987.918,521.1244 L977.918,531.1244 L873,531.1244 " fill="#FFFFFF" fill-opacity="0.00000" style="stroke:#181818;stroke-width:1;"/><text fill="#000000" font-family="Arial" font-size="14" font-weight="bold" lengthAdjust="spacing" textLength="104.918" x="876" y="525.8226">Development</text></g><!--cluster Sales & Marketing--><g id="cluster_Sales &amp; Marketing"><rect fill="#FFFFFF" fill-opacity="0.00000" height="193.59" rx="2.5" ry="2.5" style="stroke:#181818;stroke-width:1;" width="445" x="1273" y="511.8275"/><path d="M1427.6826,511.8275 L1427.6826,521.1244 L1417.6826,531.1244 L1273,531.1244 " fill="#FFFFFF" fill-opacity="0.00000" style="stroke:#181818;stroke-width:1;"/><text fill="#000000" font-family="Arial" font-size="14" font-weight="bold" lengthAdjust="spacing" textLength="144.6826" x="1276" y="525.8226">Sales &amp; Marketing</text></g><!--cluster R&I--><g id="cluster_R&amp;I"><rect fill="#FFFFFF" fill-opacity="0.00000" height="193.59" rx="2.5" ry="2.5" style="stroke:#181818;stroke-width:1;" width="204" x="1742" y="511.8275"/><path d="M1780.1982,511.8275 L1780.1982,521.1244 L1770.1982,531.1244 L1742,531.1244 " fill="#FFFFFF" fill-opacity="0.00000" style="stroke:#181818;stroke-width:1;"/><text fill="#000000" font-family="Arial" font-size="14" font-weight="bold" lengthAdjust="spacing" textLength="28.1982" x="1745" y="525.8226">R&amp;I</text></g><!--entity SH1--><g id="elem_SH1"><rect fill="#87CEEB" height="46.2969" rx="2.5" ry="2.5" style="stroke:#181818;stroke-width:0.5;" width="171.1816" x="903.41" y="99.9375"/><rect fill="#87CEEB" height="10" style="stroke:#181818;stroke-width:0.5;" width="15" x="1054.5916" y="104.9375"/><rect fill="#87CEEB" height="2" style="stroke:#181818;stroke-width:0.5;" width="4" x="1052.5916" y="106.9375"/><rect fill="#87CEEB" height="2" style="stroke:#181818;stroke-width:0.5;" width="4" x="1052.5916" y="110.9375"/><text fill="#000000" font-family="Arial" font-size="14" lengthAdjust="spacing" textLength="131.1816" x="918.41" y="132.9326">Shareholder 1 B.V.</text></g><!--entity SH2--><g id="elem_SH2"><rect fill="#87CEEB" height="46.2969" rx="2.5" ry="2.5" style="stroke:#181818;stroke-width:0.5;" width="171.1816" x="1124.41" y="99.9375"/><rect fill="#87CEEB" height="10" style="stroke:#181818;stroke-width:0.5;" width="15" x="1275.5916" y="104.9375"/><rect fill="#87CEEB" height="2" style="stroke:#181818;stroke-width:0.5;" width="4" x="1273.5916" y="106.9375"/><rect fill="#87CEEB" height="2" style="stroke:#181818;stroke-width:0.5;" width="4" x="1273.5916" y="110.9375"/><text fill="#000000" font-family="Arial" font-size="14" lengthAdjust="spacing" textLength="131.1816" x="1139.41" y="132.9326">Shareholder 2 B.V.</text></g><!--entity SH3--><g id="elem_SH3"><rect fill="#87CEEB" height="46.2969" rx="2.5" ry="2.5" style="stroke:#181818;stroke-width:0.5;" width="171.1816" x="903.41" y="213.2375"/><rect fill="#87CEEB" height="10" style="stroke:#181818;stroke-width:0.5;" width="15" x="1054.5916" y="218.2375"/><rect fill="#87CEEB" height="2" style="stroke:#181818;stroke-width:0.5;" width="4" x="1052.5916" y="220.2375"/><rect fill="#87CEEB" height="2" style="stroke:#181818;stroke-width:0.5;" width="4" x="1052.5916" y="224.2375"/><text fill="#000000" font-family="Arial" font-size="14" lengthAdjust="spacing" textLength="131.1816" x="918.41" y="246.2326">Shareholder 3 B.V.</text></g><!--entity AD--><g id="elem_AD"><rect fill="#98FB98" height="46.2969" rx="2.5" ry="2.5" style="stroke:#181818;stroke-width:0.5;" width="180.6221" x="1417.69" y="213.2375"/><rect fill="#98FB98" height="10" style="stroke:#181818;stroke-width:0.5;" width="15" x="1578.3121" y="218.2375"/><rect fill="#98FB98" height="2" style="stroke:#181818;stroke-width:0.5;" width="4" x="1576.3121" y="220.2375"/><rect fill="#98FB98" height="2" style="stroke:#181818;stroke-width:0.5;" width="4" x="1576.3121" y="224.2375"/><text fill="#000000" font-family="Arial" font-size="14" lengthAdjust="spacing" textLength="140.6221" x="1432.69" y="246.2326">Algemeen Directeur</text></g><!--entity TLHQ--><g id="elem_TLHQ"><rect fill="#FFA07A" height="46.2969" rx="2.5" ry="2.5" style="stroke:#181818;stroke-width:0.5;" width="212.2588" x="147.87" y="366.5275"/><rect fill="#FFA07A" height="10" style="stroke:#181818;stroke-width:0.5;" width="15" x="340.1288" y="371.5275"/><rect fill="#FFA07A" height="2" style="stroke:#181818;stroke-width:0.5;" width="4" x="338.1288" y="373.5275"/><rect fill="#FFA07A" height="2" style="stroke:#181818;stroke-width:0.5;" width="4" x="338.1288" y="377.5275"/><text fill="#000000" font-family="Arial" font-size="14" lengthAdjust="spacing" textLength="172.2588" x="162.87" y="399.5226">Team Lead HR &amp; Quality</text></g><!--entity TLF--><g id="elem_TLF"><rect fill="#FFA07A" height="46.2969" rx="2.5" ry="2.5" style="stroke:#181818;stroke-width:0.5;" width="176.7393" x="409.63" y="366.5275"/><rect fill="#FFA07A" height="10" style="stroke:#181818;stroke-width:0.5;" width="15" x="566.3693" y="371.5275"/><rect fill="#FFA07A" height="2" style="stroke:#181818;stroke-width:0.5;" width="4" x="564.3693" y="373.5275"/><rect fill="#FFA07A" height="2" style="stroke:#181818;stroke-width:0.5;" width="4" x="564.3693" y="377.5275"/><text fill="#000000" font-family="Arial" font-size="14" lengthAdjust="spacing" textLength="136.7393" x="424.63" y="399.5226">Team Lead Finance</text></g><!--entity TLO--><g id="elem_TLO"><rect fill="#FFA07A" height="46.2969" rx="2.5" ry="2.5" style="stroke:#181818;stroke-width:0.5;" width="199.127" x="636.44" y="366.5275"/><rect fill="#FFA07A" height="10" style="stroke:#181818;stroke-width:0.5;" width="15" x="815.567" y="371.5275"/><rect fill="#FFA07A" height="2" style="stroke:#181818;stroke-width:0.5;" width="4" x="813.567" y="373.5275"/><rect fill="#FFA07A" height="2" style="stroke:#181818;stroke-width:0.5;" width="4" x="813.567" y="377.5275"/><text fill="#000000" font-family="Arial" font-size="14" lengthAdjust="spacing" textLength="159.127" x="651.44" y="399.5226">Team Lead Operations</text></g><!--entity TLD--><g id="elem_TLD"><rect fill="#FFA07A" height="46.2969" rx="2.5" ry="2.5" style="stroke:#181818;stroke-width:0.5;" width="216.4082" x="885.8" y="366.5275"/><rect fill="#FFA07A" height="10" style="stroke:#181818;stroke-width:0.5;" width="15" x="1082.2082" y="371.5275"/><rect fill="#FFA07A" height="2" style="stroke:#181818;stroke-width:0.5;" width="4" x="1080.2082" y="373.5275"/><rect fill="#FFA07A" height="2" style="stroke:#181818;stroke-width:0.5;" width="4" x="1080.2082" y="377.5275"/><text fill="#000000" font-family="Arial" font-size="14" lengthAdjust="spacing" textLength="176.4082" x="900.8" y="399.5226">Team Lead Development</text></g><!--entity TLSM--><g id="elem_TLSM"><rect fill="#FFA07A" height="46.2969" rx="2.5" ry="2.5" style="stroke:#181818;stroke-width:0.5;" width="249.5146" x="1152.24" y="366.5275"/><rect fill="#FFA07A" height="10" style="stroke:#181818;stroke-width:0.5;" width="15" x="1381.7546" y="371.5275"/><rect fill="#FFA07A" height="2" style="stroke:#181818;stroke-width:0.5;" width="4" x="1379.7546" y="373.5275"/><rect fill="#FFA07A" height="2" style="stroke:#181818;stroke-width:0.5;" width="4" x="1379.7546" y="377.5275"/><text fill="#000000" font-family="Arial" font-size="14" lengthAdjust="spacing" textLength="209.5146" x="1167.24" y="399.5226">Team Lead Sales &amp; Marketing</text></g><!--entity TLRI--><g id="elem_TLRI"><rect fill="#FFA07A" height="46.2969" rx="2.5" ry="2.5" style="stroke:#181818;stroke-width:0.5;" width="146.9346" x="1451.53" y="366.5275"/><rect fill="#FFA07A" height="10" style="stroke:#181818;stroke-width:0.5;" width="15" x="1578.4646" y="371.5275"/><rect fill="#FFA07A" height="2" style="stroke:#181818;stroke-width:0.5;" width="4" x="1576.4646" y="373.5275"/><rect fill="#FFA07A" height="2" style="stroke:#181818;stroke-width:0.5;" width="4" x="1576.4646" y="377.5275"/><text fill="#000000" font-family="Arial" font-size="14" lengthAdjust="spacing" textLength="106.9346" x="1466.53" y="399.5226">Team Lead R&amp;I</text></g><!--entity HRL--><g id="elem_HRL"><rect fill="#FFA07A" height="46.2969" rx="2.5" ry="2.5" style="stroke:#181818;stroke-width:0.5;" width="98.584" x="89.71" y="546.8275"/><rect fill="#FFA07A" height="10" style="stroke:#181818;stroke-width:0.5;" width="15" x="168.294" y="551.8275"/><rect fill="#FFA07A" height="2" style="stroke:#181818;stroke-width:0.5;" width="4" x="166.294" y="553.8275"/><rect fill="#FFA07A" height="2" style="stroke:#181818;stroke-width:0.5;" width="4" x="166.294" y="557.8275"/><text fill="#000000" font-family="Arial" font-size="14" lengthAdjust="spacing" textLength="58.584" x="104.71" y="579.8226">HR Lead</text></g><!--entity QM--><g id="elem_QM"><rect fill="#FFE4B5" height="46.2969" rx="2.5" ry="2.5" style="stroke:#181818;stroke-width:0.5;" width="155.8418" x="47.08" y="643.1275"/><rect fill="#FFE4B5" height="10" style="stroke:#181818;stroke-width:0.5;" width="15" x="182.9218" y="648.1275"/><rect fill="#FFE4B5" height="2" style="stroke:#181818;stroke-width:0.5;" width="4" x="180.9218" y="650.1275"/><rect fill="#FFE4B5" height="2" style="stroke:#181818;stroke-width:0.5;" width="4" x="180.9218" y="654.1275"/><text fill="#000000" font-family="Arial" font-size="14" lengthAdjust="spacing" textLength="115.8418" x="62.08" y="676.1226">Quality Manager</text></g><!--entity FL--><g id="elem_FL"><rect fill="#FFA07A" height="46.2969" rx="2.5" ry="2.5" style="stroke:#181818;stroke-width:0.5;" width="132.9072" x="291.55" y="546.8275"/><rect fill="#FFA07A" height="10" style="stroke:#181818;stroke-width:0.5;" width="15" x="404.4572" y="551.8275"/><rect fill="#FFA07A" height="2" style="stroke:#181818;stroke-width:0.5;" width="4" x="402.4572" y="553.8275"/><rect fill="#FFA07A" height="2" style="stroke:#181818;stroke-width:0.5;" width="4" x="402.4572" y="557.8275"/><text fill="#000000" font-family="Arial" font-size="14" lengthAdjust="spacing" textLength="92.9072" x="306.55" y="579.8226">Finance Lead</text></g><!--entity FC--><g id="elem_FC"><rect fill="#FFE4B5" height="46.2969" rx="2.5" ry="2.5" style="stroke:#181818;stroke-width:0.5;" width="175.9463" x="259.03" y="643.1275"/><rect fill="#FFE4B5" height="10" style="stroke:#181818;stroke-width:0.5;" width="15" x="414.9763" y="648.1275"/><rect fill="#FFE4B5" height="2" style="stroke:#181818;stroke-width:0.5;" width="4" x="412.9763" y="650.1275"/><rect fill="#FFE4B5" height="2" style="stroke:#181818;stroke-width:0.5;" width="4" x="412.9763" y="654.1275"/><text fill="#000000" font-family="Arial" font-size="14" lengthAdjust="spacing" textLength="135.9463" x="274.03" y="676.1226">Financial Controller</text></g><!--entity OL--><g id="elem_OL"><rect fill="#FFA07A" height="46.2969" rx="2.5" ry="2.5" style="stroke:#181818;stroke-width:0.5;" width="155.2949" x="658.35" y="546.8275"/><rect fill="#FFA07A" height="10" style="stroke:#181818;stroke-width:0.5;" width="15" x="793.6449" y="551.8275"/><rect fill="#FFA07A" height="2" style="stroke:#181818;stroke-width:0.5;" width="4" x="791.6449" y="553.8275"/><rect fill="#FFA07A" height="2" style="stroke:#181818;stroke-width:0.5;" width="4" x="791.6449" y="557.8275"/><text fill="#000000" font-family="Arial" font-size="14" lengthAdjust="spacing" textLength="115.2949" x="673.35" y="579.8226">Operations Lead</text></g><!--entity SE--><g id="elem_SE"><rect fill="#FFE4B5" height="46.2969" rx="2.5" ry="2.5" style="stroke:#181818;stroke-width:0.5;" width="169.4385" x="491.28" y="643.1275"/><rect fill="#FFE4B5" height="10" style="stroke:#181818;stroke-width:0.5;" width="15" x="640.7185" y="648.1275"/><rect fill="#FFE4B5" height="2" style="stroke:#181818;stroke-width:0.5;" width="4" x="638.7185" y="650.1275"/><rect fill="#FFE4B5" height="2" style="stroke:#181818;stroke-width:0.5;" width="4" x="638.7185" y="654.1275"/><text fill="#000000" font-family="Arial" font-size="14" lengthAdjust="spacing" textLength="129.4385" x="506.28" y="676.1226">Support Engineers</text></g><!--entity CON--><g id="elem_CON"><rect fill="#FFE4B5" height="46.2969" rx="2.5" ry="2.5" style="stroke:#181818;stroke-width:0.5;" width="122.9951" x="710.5" y="643.1275"/><rect fill="#FFE4B5" height="10" style="stroke:#181818;stroke-width:0.5;" width="15" x="813.4951" y="648.1275"/><rect fill="#FFE4B5" height="2" style="stroke:#181818;stroke-width:0.5;" width="4" x="811.4951" y="650.1275"/><rect fill="#FFE4B5" height="2" style="stroke:#181818;stroke-width:0.5;" width="4" x="811.4951" y="654.1275"/><text fill="#000000" font-family="Arial" font-size="14" lengthAdjust="spacing" textLength="82.9951" x="725.5" y="676.1226">Consultants</text></g><!--entity DL--><g id="elem_DL"><rect fill="#FFA07A" height="46.2969" rx="2.5" ry="2.5" style="stroke:#181818;stroke-width:0.5;" width="172.5762" x="907.71" y="546.8275"/><rect fill="#FFA07A" height="10" style="stroke:#181818;stroke-width:0.5;" width="15" x="1060.2862" y="551.8275"/><rect fill="#FFA07A" height="2" style="stroke:#181818;stroke-width:0.5;" width="4" x="1058.2862" y="553.8275"/><rect fill="#FFA07A" height="2" style="stroke:#181818;stroke-width:0.5;" width="4" x="1058.2862" y="557.8275"/><text fill="#000000" font-family="Arial" font-size="14" lengthAdjust="spacing" textLength="132.5762" x="922.71" y="579.8226">Development Lead</text></g><!--entity PO--><g id="elem_PO"><rect fill="#FFE4B5" height="46.2969" rx="2.5" ry="2.5" style="stroke:#181818;stroke-width:0.5;" width="143.8721" x="889.06" y="643.1275"/><rect fill="#FFE4B5" height="10" style="stroke:#181818;stroke-width:0.5;" width="15" x="1012.9321" y="648.1275"/><rect fill="#FFE4B5" height="2" style="stroke:#181818;stroke-width:0.5;" width="4" x="1010.9321" y="650.1275"/><rect fill="#FFE4B5" height="2" style="stroke:#181818;stroke-width:0.5;" width="4" x="1010.9321" y="654.1275"/><text fill="#000000" font-family="Arial" font-size="14" lengthAdjust="spacing" textLength="103.8721" x="904.06" y="676.1226">Product Owner</text></g><!--entity LD--><g id="elem_LD"><rect fill="#FFE4B5" height="46.2969" rx="2.5" ry="2.5" style="stroke:#181818;stroke-width:0.5;" width="150.332" x="1082.83" y="643.1275"/><rect fill="#FFE4B5" height="10" style="stroke:#181818;stroke-width:0.5;" width="15" x="1213.162" y="648.1275"/><rect fill="#FFE4B5" height="2" style="stroke:#181818;stroke-width:0.5;" width="4" x="1211.162" y="650.1275"/><rect fill="#FFE4B5" height="2" style="stroke:#181818;stroke-width:0.5;" width="4" x="1211.162" y="654.1275"/><text fill="#000000" font-family="Arial" font-size="14" lengthAdjust="spacing" textLength="110.332" x="1097.83" y="676.1226">Lead Developer</text></g><!--entity DEV--><g id="elem_DEV"><rect fill="#FFE4B5" height="46.2969" rx="2.5" ry="2.5" style="stroke:#181818;stroke-width:0.5;" width="119.2969" x="1098.35" y="739.4175"/><rect fill="#FFE4B5" height="10" style="stroke:#181818;stroke-width:0.5;" width="15" x="1197.6469" y="744.4175"/><rect fill="#FFE4B5" height="2" style="stroke:#181818;stroke-width:0.5;" width="4" x="1195.6469" y="746.4175"/><rect fill="#FFE4B5" height="2" style="stroke:#181818;stroke-width:0.5;" width="4" x="1195.6469" y="750.4175"/><text fill="#000000" font-family="Arial" font-size="14" lengthAdjust="spacing" textLength="79.2969" x="1113.35" y="772.4126">Developers</text></g><!--entity CL--><g id="elem_CL"><rect fill="#FFA07A" height="46.2969" rx="2.5" ry="2.5" style="stroke:#181818;stroke-width:0.5;" width="162.3701" x="1288.81" y="546.8275"/><rect fill="#FFA07A" height="10" style="stroke:#181818;stroke-width:0.5;" width="15" x="1431.1801" y="551.8275"/><rect fill="#FFA07A" height="2" style="stroke:#181818;stroke-width:0.5;" width="4" x="1429.1801" y="553.8275"/><rect fill="#FFA07A" height="2" style="stroke:#181818;stroke-width:0.5;" width="4" x="1429.1801" y="557.8275"/><text fill="#000000" font-family="Arial" font-size="14" lengthAdjust="spacing" textLength="122.3701" x="1303.81" y="579.8226">Commercial Lead</text></g><!--entity SS--><g id="elem_SS"><rect fill="#FFE4B5" height="46.2969" rx="2.5" ry="2.5" style="stroke:#181818;stroke-width:0.5;" width="137.0566" x="1289.47" y="643.1275"/><rect fill="#FFE4B5" height="10" style="stroke:#181818;stroke-width:0.5;" width="15" x="1406.5266" y="648.1275"/><rect fill="#FFE4B5" height="2" style="stroke:#181818;stroke-width:0.5;" width="4" x="1404.5266" y="650.1275"/><rect fill="#FFE4B5" height="2" style="stroke:#181818;stroke-width:0.5;" width="4" x="1404.5266" y="654.1275"/><text fill="#000000" font-family="Arial" font-size="14" lengthAdjust="spacing" textLength="97.0566" x="1304.47" y="676.1226">Sales Support</text></g><!--entity MC--><g id="elem_MC"><rect fill="#FFE4B5" height="46.2969" rx="2.5" ry="2.5" style="stroke:#181818;stroke-width:0.5;" width="225.0693" x="1476.47" y="643.1275"/><rect fill="#FFE4B5" height="10" style="stroke:#181818;stroke-width:0.5;" width="15" x="1681.5393" y="648.1275"/><rect fill="#FFE4B5" height="2" style="stroke:#181818;stroke-width:0.5;" width="4" x="1679.5393" y="650.1275"/><rect fill="#FFE4B5" height="2" style="stroke:#181818;stroke-width:0.5;" width="4" x="1679.5393" y="654.1275"/><text fill="#000000" font-family="Arial" font-size="14" lengthAdjust="spacing" textLength="185.0693" x="1491.47" y="676.1226">Marketing Communication</text></g><!--entity RDL--><g id="elem_RDL"><rect fill="#FFA07A" height="46.2969" rx="2.5" ry="2.5" style="stroke:#181818;stroke-width:0.5;" width="109.7539" x="1773.12" y="546.8275"/><rect fill="#FFA07A" height="10" style="stroke:#181818;stroke-width:0.5;" width="15" x="1862.8739" y="551.8275"/><rect fill="#FFA07A" height="2" style="stroke:#181818;stroke-width:0.5;" width="4" x="1860.8739" y="553.8275"/><rect fill="#FFA07A" height="2" style="stroke:#181818;stroke-width:0.5;" width="4" x="1860.8739" y="557.8275"/><text fill="#000000" font-family="Arial" font-size="14" lengthAdjust="spacing" textLength="69.7539" x="1788.12" y="579.8226">R&amp;D Lead</text></g><!--entity SA--><g id="elem_SA"><rect fill="#FFE4B5" height="46.2969" rx="2.5" ry="2.5" style="stroke:#181818;stroke-width:0.5;" width="171.8584" x="1758.07" y="643.1275"/><rect fill="#FFE4B5" height="10" style="stroke:#181818;stroke-width:0.5;" width="15" x="1909.9284" y="648.1275"/><rect fill="#FFE4B5" height="2" style="stroke:#181818;stroke-width:0.5;" width="4" x="1907.9284" y="650.1275"/><rect fill="#FFE4B5" height="2" style="stroke:#181818;stroke-width:0.5;" width="4" x="1907.9284" y="654.1275"/><text fill="#000000" font-family="Arial" font-size="14" lengthAdjust="spacing" textLength="131.8584" x="1773.07" y="676.1226">Solution Architects</text></g><!--link Shareholders to Board--><g id="link_Shareholders_Board"><path d="M1354.4396,123.7175 C1355.2699,123.7175 1356.1566,123.7175 1357.0977,123.7175 C1358.9799,123.7175 1361.0793,123.7175 1363.3788,123.7175 C1372.5768,123.7175 1384.9759,123.7175 1399.4736,123.7175 C1428.4691,123.7175 1465.8594,123.7175 1502.8263,123.7175 C1576.76,123.7175 1649,123.7175 1649,123.7175 C1649,123.7175 1649,130.1144 1649,139.8595 C1649,144.7321 1649,150.4418 1649,156.6074 C1649,159.6902 1649,162.887 1649,166.1502 C1649,166.966 1649,167.786 1649,168.6093 C1649,169.021 1649,163.4335 1649,163.8468 " fill="#FFFFFF" fill-opacity="0.00000" id="Shareholders-to-Board" style="stroke:#808080;stroke-width:1;"/><polygon fill="#808080" points="1649,169.8468,1653,160.8468,1649,164.8468,1645,160.8468,1649,169.8468" style="stroke:#808080;stroke-width:1;"/></g><!--link Board to LT--><g id="link_Board_LT"><path d="M1649,283.8043 C1649,284.0642 1649,284.3246 1649,284.5855 C1649,285.6291 1649,286.6809 1649,287.74 C1649,296.2125 1649,305.1494 1649,314.0675 C1649,316.297 1649,318.5254 1649,320.745 C1649,321.2999 1649,321.8543 1649,322.408 C1649,322.6849 1649,316.9615 1649,317.238 " fill="#FFFFFF" fill-opacity="0.00000" id="Board-to-LT" style="stroke:#808080;stroke-width:1;"/><polygon fill="#808080" points="1649,323.238,1653,314.238,1649,318.238,1645,314.238,1649,323.238" style="stroke:#808080;stroke-width:1;"/></g><!--link TLHQ to HRL--><g id="link_TLHQ_HRL"><path d="M168.08,413.2475 C168.08,447.8075 168.08,505.8375 168.08,540.3975 " fill="#FFFFFF" fill-opacity="0.00000" id="TLHQ-to-HRL" style="stroke:#808080;stroke-width:1;"/><polygon fill="#808080" points="168.08,546.3975,172.08,537.3975,168.08,541.3975,164.08,537.3975,168.08,546.3975" style="stroke:#808080;stroke-width:1;"/></g><!--link HRL to QM--><g id="link_HRL_QM"><path d="M139,593.2875 C139,608.3175 139,621.7875 139,636.8375 " fill="#FFFFFF" fill-opacity="0.00000" id="HRL-to-QM" style="stroke:#808080;stroke-width:1;"/><polygon fill="#808080" points="139,642.8375,143,633.8375,139,637.8375,135,633.8375,139,642.8375" style="stroke:#808080;stroke-width:1;"/></g><!--link TLF to FL--><g id="link_TLF_FL"><path d="M417.04,413.2475 C417.04,447.8075 417.04,505.8375 417.04,540.3975 " fill="#FFFFFF" fill-opacity="0.00000" id="TLF-to-FL" style="stroke:#808080;stroke-width:1;"/><polygon fill="#808080" points="417.04,546.3975,421.04,537.3975,417.04,541.3975,413.04,537.3975,417.04,546.3975" style="stroke:#808080;stroke-width:1;"/></g><!--link FL to FC--><g id="link_FL_FC"><path d="M358,593.2875 C358,608.3175 358,621.7875 358,636.8375 " fill="#FFFFFF" fill-opacity="0.00000" id="FL-to-FC" style="stroke:#808080;stroke-width:1;"/><polygon fill="#808080" points="358,642.8375,362,633.8375,358,637.8375,354,633.8375,358,642.8375" style="stroke:#808080;stroke-width:1;"/></g><!--link TLO to OL--><g id="link_TLO_OL"><path d="M736,413.2475 C736,447.8075 736,505.8375 736,540.3975 " fill="#FFFFFF" fill-opacity="0.00000" id="TLO-to-OL" style="stroke:#808080;stroke-width:1;"/><polygon fill="#808080" points="736,546.3975,740,537.3975,736,541.3975,732,537.3975,736,546.3975" style="stroke:#808080;stroke-width:1;"/></g><!--link OL to SE--><g id="link_OL_SE"><path d="M657.91,570.7175 C651.48,570.7175 647.39,570.7175 647.39,570.7175 C647.39,570.7175 647.39,608.3575 647.39,636.6475 " fill="#FFFFFF" fill-opacity="0.00000" id="OL-to-SE" style="stroke:#808080;stroke-width:1;"/><polygon fill="#808080" points="647.39,642.6475,651.39,633.6475,647.39,637.6475,643.39,633.6475,647.39,642.6475" style="stroke:#808080;stroke-width:1;"/></g><!--link OL to CON--><g id="link_OL_CON"><path d="M762.07,593.2875 C762.07,608.3175 762.07,621.7875 762.07,636.8375 " fill="#FFFFFF" fill-opacity="0.00000" id="OL-to-CON" style="stroke:#808080;stroke-width:1;"/><polygon fill="#808080" points="762.07,642.8375,766.07,633.8375,762.07,637.8375,758.07,633.8375,762.07,642.8375" style="stroke:#808080;stroke-width:1;"/></g><!--link TLD to DL--><g id="link_TLD_DL"><path d="M994,413.2475 C994,447.8075 994,505.8375 994,540.3975 " fill="#FFFFFF" fill-opacity="0.00000" id="TLD-to-DL" style="stroke:#808080;stroke-width:1;"/><polygon fill="#808080" points="994,546.3975,998,537.3975,994,541.3975,990,537.3975,994,546.3975" style="stroke:#808080;stroke-width:1;"/></g><!--link DL to PO--><g id="link_DL_PO"><path d="M970.32,593.2875 C970.32,608.3175 970.32,621.7875 970.32,636.8375 " fill="#FFFFFF" fill-opacity="0.00000" id="DL-to-PO" style="stroke:#808080;stroke-width:1;"/><polygon fill="#808080" points="970.32,642.8375,974.32,633.8375,970.32,637.8375,966.32,633.8375,970.32,642.8375" style="stroke:#808080;stroke-width:1;"/></g><!--link DL to LD--><g id="link_DL_LD"><path d="M1080.44,570.7175 C1087.8,570.7175 1092.52,570.7175 1092.52,570.7175 C1092.52,570.7175 1092.52,608.3575 1092.52,636.6475 " fill="#FFFFFF" fill-opacity="0.00000" id="DL-to-LD" style="stroke:#808080;stroke-width:1;"/><polygon fill="#808080" points="1092.52,642.6475,1096.52,633.6475,1092.52,637.6475,1088.52,633.6475,1092.52,642.6475" style="stroke:#808080;stroke-width:1;"/></g><!--link LD to DEV--><g id="link_LD_DEV"><path d="M1158,689.5875 C1158,704.6075 1158,718.0875 1158,733.1375 " fill="#FFFFFF" fill-opacity="0.00000" id="LD-to-DEV" style="stroke:#808080;stroke-width:1;"/><polygon fill="#808080" points="1158,739.1375,1162,730.1375,1158,734.1375,1154,730.1375,1158,739.1375" style="stroke:#808080;stroke-width:1;"/></g><!--link TLSM to CL--><g id="link_TLSM_CL"><path d="M1345.29,413.2475 C1345.29,447.8075 1345.29,505.8375 1345.29,540.3975 " fill="#FFFFFF" fill-opacity="0.00000" id="TLSM-to-CL" style="stroke:#808080;stroke-width:1;"/><polygon fill="#808080" points="1345.29,546.3975,1349.29,537.3975,1345.29,541.3975,1341.29,537.3975,1345.29,546.3975" style="stroke:#808080;stroke-width:1;"/></g><!--link CL to SS--><g id="link_CL_SS"><path d="M1358,593.2875 C1358,608.3175 1358,621.7875 1358,636.8375 " fill="#FFFFFF" fill-opacity="0.00000" id="CL-to-SS" style="stroke:#808080;stroke-width:1;"/><polygon fill="#808080" points="1358,642.8375,1362,633.8375,1358,637.8375,1354,633.8375,1358,642.8375" style="stroke:#808080;stroke-width:1;"/></g><!--link CL to MC--><g id="link_CL_MC"><path d="M1438.86,593.3975 C1438.86,622.0275 1438.86,666.7175 1438.86,666.7175 C1438.86,666.7175 1448.64,666.7175 1469.97,666.7175 " fill="#FFFFFF" fill-opacity="0.00000" id="CL-to-MC" style="stroke:#808080;stroke-width:1;"/><polygon fill="#808080" points="1475.97,666.7175,1466.97,662.7175,1470.97,666.7175,1466.97,670.7175,1475.97,666.7175" style="stroke:#808080;stroke-width:1;"/></g><!--link TLRI to RDL--><g id="link_TLRI_RDL"><path d="M1598.73,402.7175 C1688.42,402.7175 1828,402.7175 1828,402.7175 C1828,402.7175 1828,494.2575 1828,540.3675 " fill="#FFFFFF" fill-opacity="0.00000" id="TLRI-to-RDL" style="stroke:#808080;stroke-width:1;"/><polygon fill="#808080" points="1828,546.3675,1832,537.3675,1828,541.3675,1824,537.3675,1828,546.3675" style="stroke:#808080;stroke-width:1;"/></g><!--link RDL to SA--><g id="link_RDL_SA"><path d="M1828,593.2875 C1828,608.3175 1828,621.7875 1828,636.8375 " fill="#FFFFFF" fill-opacity="0.00000" id="RDL-to-SA" style="stroke:#808080;stroke-width:1;"/><polygon fill="#808080" points="1828,642.8375,1832,633.8375,1828,637.8375,1824,633.8375,1828,642.8375" style="stroke:#808080;stroke-width:1;"/></g><text fill="#888888" font-family="Arial" font-size="10" lengthAdjust="spacing" textLength="70.835" x="945.5825" y="839.9997">OpenWoo.app</text><!--SRC=[ZLPBRwCm4BxxLrYDr9wswcEhjdjOYV1GAf7IGDGzhFPW9Kv01HiPqwggzh_lO0W5soMRGwICv_lc6y_3aPdCAOx4dh2i8ZAZE96YtiYw5cZ7kQJY1uvAodvnVaxA4gMKR7KRgbuoLX912hobErBdCk1CFfA2OaTa91-SCxwb5ItnpSN0A0XxCOnLIhRyBMDxl2DvHGSdUSQeV2yfvaAc7A4pdAH4q9JdeAn2Ez44FXdQJl07ml3PyABaZ38vEiQNU7x-V7w2IOMJnIMUtTswlZ-VGbmD4LV_WxWU8gvxnDz6_fmJiJteLZyiWfryJmjA6VOoGJUIraAHEHwUtTy5y_kxbYjKzQdIhCHhIee3gsPMq71jHcaE5GTUnFWKhsgIP_9TkQ_3nGhFWi2vk7M-XWKP8sn3EqHm702D9A3lEAiwJ7GSuz5NclEo07C7yew34fBJ2d9Q4l529JHM1qsMnx7nwKFd7J_qtkg-6v- -vzIFG-tEHbVOLgEnTxxZ-sqXMdnmQQAho8iu7CdKN0zHbeIHFMrROwKIyx_FRnG2vBQokX8PYlhIMSKSKBsYO59Gwmx3ZrtO1OBdUQSgSEsgFll043Pi4Qks0RQN5qtAI-goXFM1VRQ7RQ9MH3EP_aYRXe54AjXjXCdMsuqUxQaCsjF8PTIwrcI6w3uRRpAR9y6tiBDnzCQwMtwAfZ8P3b47Q2VeAq3lssRk-S_sp8qPC_AtJE67_RABWWhLGFqbkDCbLSnTOTjo9bCvVMfiOjKiswWMKiZb5qqQm-D5n2Q511uOuwyAOUIejeKrg_ZK-qmddYvgmlDQqJiGC9EmyxicTJHjQW_5D6yd05PyXOQF7_xsUxONvFtFjv_TIwE-UpEyiWoEmdL3CrfPOiIfzhy6Wgs4cisacLVBXkkmCNIQG7SFGXGO787RS0mcMwU9T4GKeiYWINoB4IQt8HzEcixkwHWlH9v1z1HPZA67B73_MVrJCGP43mpFaQusHAwPLs8nBjMTGViPhF1iQRxGVIWsnIVEFm00]--></g></svg>